<?xml version="1.0" encoding="UTF-8"?>
<svg xmlns="http://www.w3.org/2000/svg" width="266.67" height="178" viewBox="0 0 266.67 178" preserveAspectRatio="xMidYMid meet">
  <g transform="translate(.27678 -.27678)">
    <path d="m86.766 170.27c-0.79137-0.87446-1.3887-2.8313-1.6279-5.3333l-0.37786-3.9521h8.1423c7.194 0 8.1778-0.13588 8.4472-1.1667 0.27693-1.0597 0.31198-1.054 0.38222 0.0624 0.0456 0.72479-0.49285 1.3782-1.3124 1.5925-0.87591 0.22905-1.1098 0.53641-0.63256 0.83135 0.56072 0.34654 0.54544 0.93256-0.05889 2.2589-0.6242 1.37-0.63222 1.9748-0.03411 2.5729 0.43006 0.43005 0.78192 0.97376 0.78192 1.2082 0 0.97393-3.2508 1.7282-6.883 1.597-2.7972-0.10102-3.9823 0.11846-4.238 0.78487-0.48864 1.2734-1.1254 1.1612-2.589-0.45616zm11.71-5.0624v-3.5563h-12v7.3775l12-0.26482zm-9.3333 1.1103c0-0.36666 1.65-0.66666 3.6667-0.66666 2.0167 0 3.6667 0.3 3.6667 0.66666 0 0.36667-1.65 0.66667-3.6667 0.66667-2.0167 0-3.6667-0.3-3.6667-0.66667zm0-2.6667c0-0.36667 1.65-0.66667 3.6667-0.66667 2.0167 0 3.6667 0.3 3.6667 0.66667 0 0.36666-1.65 0.66666-3.6667 0.66666-2.0167 0-3.6667-0.3-3.6667-0.66666zm64 6.8496c-0.55-0.20815-1.2434-0.79078-1.541-1.2947-0.29753-0.50395-0.89753-0.70117-1.3333-0.43828-0.4358 0.2629 0.18264-0.64123 1.3743-2.0092 2.4596-2.8234 2.9194-5.7741 0.89982-5.7741-0.95848 0-1.4548 0.77079-2.0391 3.1667-1.0088 4.1364-2.7059 6.2131-4.6598 5.7021-1.2853-0.33611-1.4244-0.69045-1.0514-2.6786 0.26253-1.3994 0.12313-2.6608-0.35814-3.2407-0.5813-0.70043-0.59323-1.1841-0.0455-1.8441 0.40838-0.49207 0.54511-1.0921 0.30385-1.3333-0.24126-0.24126-0.0781-0.43866 0.36257-0.43866 0.60562 0 0.61956-0.33946 0.0571-1.3904-0.40928-0.76473-0.55793-1.5766-0.33035-1.8042 0.22759-0.22758 0.58688 0.24811 0.79844 1.0571 0.21155 0.80899 0.87465 1.4817 1.4736 1.4949 0.77342 0.017 0.51342 0.49423-0.89739 1.647-1.5329 1.2526-1.8057 1.8037-1.1949 2.4144 0.61074 0.61074 1.0345 0.58962 1.8565-0.0926 0.9629-0.79913 0.98291-0.69728 0.2085 1.0616-0.47113 1.07-1.1261 2.137-1.4556 2.371-0.8037 0.57088 0.0798 1.9079 1.2607 1.9079 1.2204 0 2.6947-2.9121 3.2909-6.5l0.47077-2.8333 3.4414 0.0203c2.6625 0.0157 3.1774 0.17407 2.2747 0.69979-0.83454 0.48608-1.1667 1.5241-1.1667 3.6464 0 2.7202-0.13856 2.9669-1.6667 2.9669-1.0657 0-1.6667 0.3751-1.6667 1.0402 0 0.7944 0.59084 0.99135 2.5 0.83334l2.5-0.20691 0.19819-3.4042c0.16711-2.8705 0.46689-3.548 1.9121-4.3215 0.94264-0.50449 1.929-1.4989 2.192-2.2098 0.33234-0.89838 0.62874-1.0488 0.97201-0.49341 0.29575 0.47854-0.32878 1.5676-1.5569 2.7148-1.5265 1.426-2.0508 2.506-2.0508 4.225 0 1.3268-0.58787 3.0566-1.3817 4.0659-1.3825 1.7575-2.0785 1.9817-3.9516 1.2728zm-42.885-1.618c-0.57295-0.91744-1.5785-1.2316-3.9421-1.2316-2.6688 0-3.173-0.20055-3.173-1.262 0-0.6941 0.45-1.4347 1-1.6457 1.1882-0.45594 1.3264-3.1658 0.21808-4.2742-0.59293-0.59293-0.59638-1.1891-0.0143-2.4667 0.42219-0.92661 0.50615-1.6848 0.18658-1.6848-1.1929 0-1.3898-2.2289-0.30312-3.4297 1.1962-1.3218 6.2461-1.7829 6.2461-0.57026 0 0.36667-1.35 0.66667-3 0.66667-2.5556 0-3 0.19753-3 1.3333 0 0.74074 0.44445 1.3333 1 1.3333 0.55 0 1 0.45941 1 1.0209s-0.45 1.1936-1 1.4047c-1.2111 0.46474-1.3381 2.2411-0.16022 2.2411 1.4264 0 1.0298 4.2508-0.45279 4.8537-0.98 0.39847-1.0963 0.70372-0.49653 1.3035 0.5807 0.5807 1.4716 0.59939 3.4463 0.0723 2.5552-0.68203 2.6632-0.64704 2.6632 0.86319 0 0.95471 0.39347 1.574 1 1.574 0.72222 0 1-0.74074 1-2.6667 0-1.4667 0.3-2.6667 0.66667-2.6667 0.36666 0 0.66666 1.2 0.66666 2.6667 0 1.4667 0.3 2.6667 0.66667 2.6667s0.66667-1.2 0.66667-2.6667c0-1.4667 0.3-2.6667 0.66666-2.6667 0.36667 0 0.66667 1.1739 0.66667 2.6087 0 2.521 0.0729 2.605 2.1667 2.5 2.1277-0.10671 2.1703-0.17157 2.3682-3.6087l0.20151-3.5h-2.0348c-2.6911 0-2.6253-1.1905 0.0805-1.4578 1.1634-0.1149 2.2384-0.58391 2.3889-1.0422 0.2067-0.62966-1.3694-0.83334-6.4487-0.83334h-6.7222v-1.6667c0-1.8815 1.3973-1.9901 2.1452-0.16667 0.39074 0.95268 1.325 1.1667 5.0937 1.1667h4.6152l0.27698-2.3726c0.19421-1.6635-0.033-2.554-0.7604-2.9797-1.3657-0.79936-0.28546-0.82739 1.2022-0.0312 0.98635 0.52788 1.1696 1.8146 1.2743 8.9504l0.12231 8.3339-1.8181 0.3587c-0.99995 0.19728-3.5691 0.32383-5.7093 0.28122-3.007-0.0599-4.066-0.35734-4.6604-1.3091zm15.83 0.67364c-1.2541-0.61044-1.4024-1.3277-1.5388-7.4417-0.083-3.7214-0.40794-6.925-0.72201-7.1191-0.90698-0.56054 1.0228-2.7143 2.8838-3.2185 0.9324-0.25262 4.6359-0.31328 8.2301-0.1348l6.5348 0.32451-15.333 0.68432-0.18783 7.8333-0.18782 7.8333h7.3545c4.045 0 7.5795 0.0159 7.8545 0.0352 0.275 0.0194 0.597-0.43063 0.71555-1 0.12254-0.58853-0.23704-1.0352-0.83333-1.0352-0.57689 0-1.0489-0.44229-1.0489-0.98288 0-0.54058-0.92788-1.4627-2.062-2.0492-2.5364-1.3116-2.3422-1.5372 0.9693-1.1251 1.4157 0.17617 2.2468 0.52256 1.8468 0.76977-0.46606 0.28805-5e-3 1.3256 1.2835 2.8888l2.0107 2.4394-1.8575 0.92239c-2.2212 1.103-13.853 1.3774-15.912 0.37539zm-7.4575-4.5719c0-1.2833 0.1372-1.8083 0.30488-1.1667 0.16769 0.64167 0.16769 1.6917 0 2.3333-0.16768 0.64166-0.30488 0.11666-0.30488-1.1667zm9.3851 0.42364c0.25313-0.65965 0.46023-1.3425 0.46023-1.5175 0-0.17498 0.27927-0.14555 0.6206 0.0654s0.80904 0.0787 1.0394-0.29399c0.23031-0.37265-0.049-0.67754-0.6206-0.67754-2.2108 0-0.89868-1.0066 1.4636-1.1228l2.497-0.12286-2 1.6394c-1.1 0.90167-2.4321 1.9971-2.9602 2.4343-0.78913 0.65328-0.87823 0.58122-0.5-0.40441zm5.1959-0.34543c1.4036-1.1366 1.6939-1.1608 3.0739-0.25666 0.83811 0.54916 1.5238 1.114 1.5238 1.2551 0 0.14117-1.3832 0.25666-3.0738 0.25666h-3.0739zm-24.736-2.7449c0-1.9259 0.11111-2 3-2 1.65 0 3 0.3 3 0.66667s-0.86501 0.66667-1.9222 0.66667c-1.3616 0-2.024 0.3889-2.2709 1.3333-0.53595 2.0494-1.8068 1.5805-1.8068-0.66667zm-25.583-1.8652c-0.18078-0.29251-0.05308-0.96751 0.28378-1.5 0.47819-0.75591 0.61471-0.63931 0.62268 0.53183 0.01049 1.542-0.32821 1.9038-0.90646 0.96817zm47.16-1.1389c2.1373-1.1147 3.7571-1.2926 3.7571-0.41256 0 0.32083-0.9375 0.77083-2.0833 1-3.27 0.65399-3.7387 0.48949-1.6738-0.58744zm5.7571-0.11136c0-0.53837 0.7827-0.88454 2-0.88454 1.3333 0 2-0.33333 2-1 0-0.75555-0.81481-1-3.3333-1-1.8333 0-3.3333-0.3-3.3333-0.66666 0-0.37037 1.7778-0.66667 4-0.66667 3.1784 0 4-0.21348 4-1.0393 0-0.57164 0.31954-0.84186 0.71009-0.60049 0.47786 0.29534 0.39813 0.79878-0.24379 1.5394-0.52464 0.60526-1.1412 1.891-1.3702 2.8572-0.31179 1.3156-0.92023 1.8307-2.4229 2.0512-1.3707 0.20118-2.0065 0.0142-2.0065-0.59004zm-50.978-0.84935c-0.23857-0.38602-0.10915-0.70185 0.28761-0.70185 0.44296 0 0.34599-0.57894-0.25123-1.5-1.2364-1.9068-0.27652-3.3923 3.1047-4.805 2.2211-0.92802 2.3796-0.90889 2.7026 0.32626 0.40748 1.5582 2.6166 1.7396 3.8013 0.31211 1.1062-1.3329 1.6943-1.266 4.027 0.45871 2.3848 1.7632 2.8318 5.4945 0.72419 6.0457-0.96047 0.25117-1.1734 0.0382-0.92225-0.92225 0.17962-0.68685 0.59158-1.2488 0.91549-1.2488s0.58891-0.6 0.58891-1.3333c0-0.88889-0.44444-1.3333-1.3333-1.3333-0.74074 0-1.3333-0.44445-1.3333-1 0-0.55-0.45-1-1-1s-1 0.45-1 1c0 0.6924-0.69578 1-2.262 1-1.3957 0-2.409-0.38299-2.6457-1-0.21106-0.55-0.84315-1-1.4047-1s-1.0209 0.45-1.0209 1c0 0.55555-0.59259 1-1.3333 1-0.90163 0-1.3333 0.44444-1.3333 1.3727 0 0.75497 0.3 1.1873 0.66667 0.96065 0.36667-0.22661 0.66667 0.0557 0.66667 0.62732 0 0.57164 0.0225 1.2568 0.05 1.5227 0.08297 0.80199-1.2297 0.97123-1.6949 0.21852zm6.9783-1.0352c0-0.9938 0.28706-1.5679 0.66667-1.3333 0.36667 0.22661 0.66667 0.82661 0.66667 1.3333s-0.3 1.1067-0.66667 1.3333c-0.3796 0.2346-0.66667-0.33953-0.66667-1.3333zm3.3333 0.44445c0-0.88796 0.41671-1.4444 1.0816-1.4444 0.92586 0 0.95303 0.16802 0.18864 1.1667-0.49114 0.64167-0.97788 1.2917-1.0816 1.4444-0.10376 0.15277-0.18864-0.37223-0.18864-1.1667zm32.928-0.75872c0.0516-1.4476 0.40085-2.0164 1.2385-2.0175 1.5269-2e-3 1.4898 1.4994-0.0719 2.9127-1.1817 1.0694-1.2352 1.0283-1.1667-0.89515zm-39.169 0.31427c-0.21106-0.55-0.09315-1 0.26201-1 0.35516 0 0.64574 0.45 0.64574 1s-0.1179 1-0.26201 1-0.43469-0.45-0.64574-1zm61.574-0.33333c0-0.39546 2.4607-0.66667 6.0489-0.66667 5.4022 0 6.0248-0.12472 5.8236-1.1667-0.17272-0.89445-0.88523-1.1643-3.0536-1.1565-2.1232 8e-3 -2.9214-0.28319-3.2018-1.1667-0.44746-1.4098-2.2837-1.5829-2.2837-0.2152 0 0.65304-0.90077 1.0274-2.8068 1.1667-2.3439 0.17119-2.8826 0.47986-3.2669 1.8717-0.25306 0.91666-0.49001 1.2917-0.52656 0.83333-0.0366-0.45833-0.59145-0.84-1.2331-0.84816-2.1827-0.0277 1.9984-2.621 4.2517-2.637 1.1468-8e-3 2.4585-0.46482 2.915-1.0148 1.059-1.276 2.277-1.2728 3.3406 9e-3 0.46048 0.55484 1.1722 0.9693 1.5816 0.92101 4.8716-0.57453 7.2112 1.2701 4.4484 3.5074-1.1889 0.96268-2.6597 1.2295-6.7778 1.2295-3.0619 0-5.2595-0.27856-5.2595-0.66667zm-37.5-2.9796c0.37379-1.9553 1.7838-3.2824 2.978-2.8027 0.53793 0.21607 0.42246 0.36327-0.31092 0.39636-0.84016 0.0379-1.1667 0.61236-1.1667 2.0526 0 1.2428-0.3436 2-0.90755 2-0.60558 0-0.80284-0.54778-0.59284-1.6463zm3.7624 0.59178c0.22256-0.57999 0.40466-1.33 0.40466-1.6667 0-0.33668 0.3-0.61215 0.66666-0.61215 0.36667 0 0.66667 0.75 0.66667 1.6667 0 1.0864-0.37302 1.6667-1.0713 1.6667-0.70302 0-0.93221-0.36254-0.66667-1.0545zm-38.262-0.27881c0-0.36666 0.3-0.66666 0.66667-0.66666 0.36667 0 0.66667 0.3 0.66667 0.66666 0 0.36667-0.3 0.66667-0.66667 0.66667-0.36667 0-0.66667-0.3-0.66667-0.66667zm-57.196-6.7778c-1.1754-0.7442-2.1375-1.3986-2.138-1.4543-5e-4 -0.0557 1.6013-1e-3 3.5594 0.12095l3.5604 0.22215-0.61734-7.4443h2.4797c7.5668 0 10.5-8.5467 3.9923-11.635-1.3279-0.63012-4.0158-1.0321-6.9011-1.0321-4.5954 0-4.6958-0.0353-3.6308-1.2792 0.94464-1.1033 1.2251-1.1494 2.0392-0.33527 0.60036 0.60036 2.1107 0.89314 4.1499 0.80441 2.5896-0.11267 3.6616 0.20801 5.5759 1.6682 1.3035 0.99421 2.5604 2.4078 2.7933 3.1414 0.41941 1.3214 2.3335 1.9068 2.3335 0.71365 0-0.36399 0.78041-0.39631 1.8894-0.0783 1.0831 0.31062 2.3786 0.26806 3.0358-0.0997 0.80616-0.45115 1.6154-0.3343 2.7265 0.39367 1.561 1.0228 1.5766 1.0094 1.2977-1.1135-0.15529-1.1818 0.03159-2.9197 0.41531-3.862 0.56672-1.3917 1.0525-1.6612 2.5882-1.4358 2.4452 0.35888 4.0056 2.995 2.8593 4.8306-0.43479 0.69621-0.6133 1.7277-0.39668 2.2922 0.48363 1.2603 0.60092 1.2634 2.4413 0.0644 1.0598-0.6905 2.8876-0.88997 6.4765-0.70683 5.797 0.29583 5.3598 0.29004 9.6395 0.12762 3.2053-0.12165 3.3516-0.0447 4.7975 2.5225 1.1603 2.0602 1.5733 2.3932 1.8605 1.5 0.20306-0.63139 0.5146-1.6105 0.69231-2.1759 0.50919-1.6198 4.2368-2.8299 7.9038-2.5658 3.3864 0.24396 4.5995 1.0682 3.9734 2.6998-0.18864 0.49159-0.08588 0.89267 0.22835 0.89129 0.31423-1e-3 1.12-1.3367 1.7906-2.9675 1.661-4.0392 5.5715-6.3634 10.707-6.3634 4.5589 0 6.4692 1.606 6.2952 5.2924l-0.11207 2.3743-0.25608-2.4088c-0.30788-2.8962-2.0712-3.9257-6.7178-3.922-5.3644 4e-3 -8.7806 2.9192-10.043 8.5697-1.271 5.6871 2.8603 11.248 8.8585 11.924 3.1677 0.35705 6.5725-1.0258 7.6965-3.1261 1.5432-2.8835 0.32189-3.5624-2.465-1.3703-3.6388 2.8623-9.3578 0.52455-9.6158-3.9307-0.32712-5.6487 1.0707-8.4824 4.5017-9.126 2.3714-0.44487 5.5989 1.0013 5.5989 2.5087 0 0.4346-0.51703 0.28672-1.2192-0.3487-1.6631-1.5051-4.9719-1.4005-6.423 0.20295-0.65019 0.71846-1.3371 2.6811-1.5265 4.3614-0.28804 2.5554-0.09258 3.3231 1.1951 4.6937 1.7768 1.8914 3.0606 2.0353 5.7308 0.64273 1.0502-0.54774 2.744-0.99774 3.7638-1 1.8978-4e-3 3.4412-2.0167 1.9324-2.5197-1.5145-0.50483-0.80852-3.3475 1.2645-5.0918 2.865-2.4107 7.316-2.4194 9.7165-0.0189 0.93889 0.93889 1.5294 1.8847 1.3124 2.1018-0.21709 0.21708-1.0207-0.4011-1.7858-1.3737-2.7725-3.5247-9.961-1.655-9.961 2.5909 0 2.1814 2.1469 2.1999 3.5682 0.0307 0.73402-1.1202 1.4671-1.5022 2.41-1.2556 2.4748 0.64716 1.5518 2.4827-1.8572 3.6935-3.9765 1.4123-5.4726 3.6465-4.1264 6.1619 1.0092 1.8856 4.4789 2.8505 6.4524 1.7943 0.82125-0.43953 1.6554-0.44656 2.417-0.0204 1.4669 0.82091 3.8027 0.11937 3.8027-1.1421 0-0.52529-0.3-0.95508-0.66666-0.95508-0.38066 0-0.6167-1.6446-0.5502-3.8333 0.10102-3.3248 0.15033-3.4575 0.37167-1 0.14035 1.5583 0.53794 2.8333 0.88353 2.8333 0.75575 0 0.65097 0.35116 1.0565-3.5407 0.19204-1.8431 0.0254-3.5795-0.39182-4.0822-1.039-1.2519-0.15852-2.9999 1.7039-3.3829 0.87622-0.18017 2.3683-0.4896 3.3157-0.68763 1.2887-0.26939 1.5923-0.14347 1.2054 0.5-0.39625 0.65896-0.25921 0.65092 0.58612-0.0344 0.92906-0.75322 1.4392-0.7269 3.2304 0.16667 2.7733 1.3835 3.3697 1.3418 5.2005-0.36395 1.1428-1.0647 1.6593-1.2153 2.0424-0.5954 0.33467 0.54152 1.2163 0.67516 2.5383 0.38479 1.6753-0.36795 2.101-0.20735 2.4615 0.92874 0.23979 0.7555 0.73347 1.3736 1.0971 1.3736 0.3636 0 0.48849 0.27927 0.27754 0.6206-0.21096 0.34133-0.0787 0.80904 0.29399 1.0394 1.3319 0.82315 0.72528 4.8477-1.0484 6.9556-2.0512 2.4377-4.9238 2.7348-6.9407 0.71781-2.1962-2.1962-1.608-2.6667 3.3333-2.6667 4.2599 0 4.6667-0.1191 4.6667-1.3664 0-1.9275-1.7774-5.1342-3.2964-5.9471-2.5119-1.3444-5.3873-0.80916-7.4361 1.3841-1.5961 1.7087-1.9341 2.6483-1.9341 5.3772 0 3.9943 0.751 5.5503 3.32 6.8788 3.117 1.6119 5.2259 1.261 7.7815-1.2946 1.7345-1.7345 2.1946-1.9646 1.8675-0.93419-0.41628 1.3116-2.6087 3.9023-3.3023 3.9023-0.18333 0-0.55833 0.0304-0.83333 0.0675-3.4763 0.46961-10.008-1.16-8.9376-2.23 0.46914-0.46913 0.38338-0.98698-0.27196-1.6423-0.52643-0.52643-0.95714-2.1566-0.95714-3.6226 0-2.3828-0.15904-2.6428-1.5-2.4524-1.3781 0.19572-1.5072 0.58325-1.5883 4.768-0.0967 4.9904-0.73492 6.2516-2.6735 5.2836-0.68103-0.34009-4.4921-0.51797-8.4691-0.3953-5.7468 0.17725-7.6039 3e-3 -9.0484-0.85065-1.7036-1.0063-1.9885-0.98646-4.5426 0.31653-3.191 1.6279-7.0721 1.4943-9.958-0.34271-1.9562-1.2452-2.5003-1.8765-4.2726-4.957-0.76439-1.3286-1.3118-1.6652-2-1.2296-0.52116 0.32985-0.67606 0.60433-0.34424 0.60994 0.33183 6e-3 0.06033 0.61021-0.60332 1.3435-0.66801 0.73815-2.0533 1.3333-3.1033 1.3333-1.843 0-4.5633-1.9871-4.5633-3.3333 0-0.38095 2-0.66666 4.6667-0.66666 4.2599 0 4.6667-0.1191 4.6667-1.3664 0-1.9275-1.7775-5.1342-3.2964-5.9471-2.4348-1.3031-5.1591-0.79502-7.319 1.3648-1.7416 1.7416-2.0513 2.5527-2.0513 5.3727 0 2.0445-0.2563 3.163-0.66667 2.9094-0.82733-0.51132-0.86125 1.6603-0.04605 2.9483 1.2257 1.9367-4.3649 4.3138-6.3232 2.6886-0.50786-0.42149-0.65454-2.34-0.43749-5.7221 0.26629-4.1494 0.1556-5.0298-0.60004-4.7725-0.66498 0.22646-0.92656 1.5525-0.92656 4.6969 0 3.4296-0.18101 4.2311-0.83333 3.6895-1.2124-1.0066-1.1056-8.806 0.13464-9.8354 2.0742-1.7215 3.3529-0.56607 3.5696 3.2256 0.11234 1.9652-0.09705 4.4374-0.46532 5.4938-0.66856 1.9178-0.66535 1.9207 2.1291 1.9209l2.7987 1.5e-4 -0.36216-5.962c-0.2745-4.5189-0.66258-6.294-1.6033-7.3335-1.392-1.5381-4.9519-1.8541-6.2512-0.55483-0.64441 0.64441-1.0924 0.64441-2.1243 0-1.6296-1.0177-5.0932-1.0656-5.7031-0.0788-0.32264 0.52204-0.60862 0.49092-0.97777-0.10639-0.40992-0.66326-0.92794-0.67598-2.4167-0.0593l-1.8949 0.7849v13.31l4.6667 4e-3 -0.21553-5.2745c-0.20118-4.9231-0.11899-5.3051 1.2338-5.7345 2.2694-0.72027 2.7761 0.46395 2.5372 5.9294l-0.22206 5.0795 2.1667-2e-3c1.1917-8.6e-4 2.1667 0.28074 2.1667 0.62577 0 1.2044-1.3578 1.4501-3.5777 0.6474-2.0438-0.73904-2.2-0.98691-1.8118-2.8751 0.77935-3.7912 0.48167-7.3996-0.61044-7.3996-1.006 0-1.2161 2.5792-0.58931 7.2348 0.2155 1.6008-0.10941 2.1005-2.0546 3.16-2.0069 1.0932-2.3836 1.128-2.8665 0.26519-0.64221-1.1476-2.8713-1.3272-3.5164-0.28338-0.51641 0.83556-4.4415 0.5999-5.0802-0.30502-0.24217-0.34311-0.27131-2.8585-0.06474-5.5898l0.37557-4.9659-2.2686 0.48709c-3.2478 0.69733-3.2297 0.66888-3.0954 4.8539 0.06722 2.0954-0.11196 4.1847-0.39817 4.6431-0.61909 0.99141-4.8518 1.121-5.4417 0.16667-0.25112-0.40633 0.74745-0.66667 2.5571-0.66667h2.9691l-0.44107-2.1667c-0.24259-1.1917-0.28599-3.5167-0.09646-5.1667 0.33399-2.9076 0.41249-2.9968 2.5487-2.8976 2.0883 0.097 2.1934-8e-3 2-1.9945-0.24316-2.4981-2.0082-3.1268-3.9204-1.3963-1.171 1.0597-1.2837 1.0649-1.2837 0.0584 0-1.3038-0.66778-1.378-2.9686-0.32965-1.7946 0.81767-2.132 1.5461-1.0314 2.2263 0.82347 0.50893 0.89203 10.115 0.07579 10.62-0.87585 0.5413-1.4267-2.2747-0.98518-5.0361 0.37985-2.3756-0.7242-4.2115-1.6652-2.769-0.47171 0.72318-3.3836 2.4029-4.4255 2.5528-0.36667 0.0528-1.2324 0.14164-1.9239 0.19749-1.0913 0.0881-1.2047 0.48482-0.85945 3.004 0.34021 2.4821 0.17759 3.0856-1.1227 4.1667-2.0533 1.7072-2.4813 1.7204-4.9568 0.15301zm31.301-8.3881c-0.12586-3.9421-0.33211-7.2737-0.45833-7.4035-0.12623-0.12986-1.032 0.0314-2.0127 0.3583-1.7693 0.58976-1.784 0.64772-1.875 7.403l-0.09176 6.8086 4.6667 0.00112zm77.466 4.2165c-0.22234-1.6222-0.19911-4.043 0.0516-5.3795 0.42319-2.2558 0.60851-2.4148 2.5837-2.2172 1.9671 0.19675 2.1278 0.0618 2.1278-1.7872 0-1.5315-0.33193-2.0474-1.4169-2.2021-0.7793-0.11118-1.9043 0.28524-2.5 0.88095-0.96958 0.96958-1.0831 0.9733-1.0831 0.0355 0-1.1152-0.89267-1.2582-2.9083-0.46576-1.0889 0.42813-1.2529 1.3241-1.3333 7.2867l-0.0917 6.7985 4.9745-3.8e-4zm-75.282-5.5031-0.54377-3.2142-0.41062 3.6667c-0.22584 2.0167-0.26203 4.4167-0.08042 5.3333 0.64715 3.2665 1.6334-2.2477 1.0348-5.7858zm32.378 3.7858c0-0.36667-0.75-0.66667-1.6667-0.66667-0.91667 0-1.6667 0.3-1.6667 0.66667 0 0.36666 0.75 0.66666 1.6667 0.66666 0.91667 0 1.6667-0.3 1.6667-0.66666zm29.667-5.3333c0.22662-0.36666 0.0943-0.66666-0.29398-0.66666-0.38831 0-0.70602 0.3-0.70602 0.66666 0 0.36667 0.1323 0.66667 0.29399 0.66667 0.1617 0 0.4794-0.3 0.70601-0.66667zm-64.403-6.9155c1.6345-1.9694-0.92665-4.335-3.3115-3.0586-1.3698 0.73309-1.5236 1.2433-0.88038 2.9196 0.49757 1.2966 3.1579 1.3849 4.1919 0.13902zm130.85 18.122c-1.2164-0.77016-1.9186-1.5817-1.5605-1.8035 0.67907-0.42058 1.0013-3.4177 0.79607-7.4032-0.0661-1.2833-0.26587-1.9752-0.44395-1.5374-0.17807 0.43774-0.79877 0.61361-1.3793 0.39083-0.92766-0.35597-1.0053 0.21678-0.64091 4.7272 0.40513 5.0145 0.37681 5.1466-1.2347 5.7593-1.114 0.42353-2.2444 0.36731-3.4827-0.17323-1.8077-0.78913-1.7914-0.80329 1.1703-1.0134l3.0036-0.21305-0.23948-5.2734c-0.23748-5.2295-0.22478-5.2771 1.5275-5.7169 0.97182-0.24392 1.9464-0.26405 2.1657-0.0447 0.78374 0.78374 1.021 7.043 0.34086 8.994-0.38105 1.0931-0.5829 2.0973-0.44856 2.2317 0.13435 0.13434 1.386 0.13538 2.7814 2e-3l2.5371-0.24196-0.21445-5.4456c-0.15309-3.8872-0.55423-5.9226-1.4017-7.1123-1.3286-1.865-3.9593-2.4552-6.0224-1.351-1.3017 0.69666-1.3663 0.55468-1.3663-3.0038 0-4.058 0.3466-3.8382-4.0671-2.579-1.019 0.29074-1.2006 0.59941-0.66667 1.1333 0.9404 0.9404 1.0017 16.89 0.0671 17.467-0.36667 0.22662-0.66667 0.0901-0.66667-0.30344 0-0.39351-1.2227 0.0937-2.7171 1.0826-4.0357 2.6707-10.036 2.0393-13.495-1.4202-0.55299-0.55299-1.6551-2.9577-2.4492-5.3438-1.3154-3.9528-1.3502-4.4319-0.39105-5.391 0.57897-0.57897 1.0527-1.6482 1.0527-2.376 0-1.4257 3.7499-5.2481 5.1486-5.2481 0.46828 0 0.85142-0.3 0.85142-0.66666 0-0.96836 5.9005-0.76244 8.9118 0.311 2.3466 0.83649 2.8138 0.79648 5.1955-0.44491 1.4394-0.75024 2.8096-1.1714 3.045-0.93603s0.59746 1.6915 0.80454 3.2357c0.36584 2.7281 0.45204 2.8129 3.0432 2.9926 3.8379 0.26617 5.6636 2.532 5.6769 7.0455 6e-3 1.9046 0.31441 3.9128 0.68622 4.4628 0.47958 0.70944 0.63008-0.48134 0.51793-4.0981-0.10271-3.3126 0.13374-5.4497 0.67514-6.1021 0.68678-0.82752 0.53538-1.3253-0.86148-2.8326-2.1057-2.2721-2.1004-2.4407 0.11009-3.4672 2.2642-1.0515 4.364-1.0645 5.3952-0.0333 0.97127 0.97127 1.0545 3.6307 0.13153 4.2011-0.44685 0.27617-0.44685 0.82724 0 1.6622 0.36766 0.68697 0.66847 3.6688 0.66847 6.6262 0 7.0764 1.1429 6.9788 1.2717-0.10852 0.0548-3.0171 0.3777-5.7637 0.71749-6.1035 0.3398-0.33979 2.916-0.73632 5.7248-0.88117 4.1327-0.21313 5.3466-0.0465 6.3632 0.87347 0.69091 0.62527 1.2562 1.5226 1.2562 1.9942s0.35099 1.0742 0.77996 1.3394c0.51419 0.31779 0.64382 0.12727 0.38044-0.55909-0.24699-0.64366 0.28241-1.6444 1.3867-2.6213 1.6914-1.4962 3.7173-1.7796 9.2386-1.2923 1.7646 0.15573 2.881 2.2267 2.881 5.3443 0 1.7489 0.44388 4.6524 0.9864 6.4524 0.60799 2.0172 0.73427 3.3584 0.32918 3.4962-0.36147 0.12298-0.49466 0.48663-0.29597 0.80811 0.52211 0.8448-3.8495 1.9042-4.8024 1.1638-0.43054-0.33453-1.7837-0.42048-3.0069-0.19099-1.2233 0.22949-3.121 0.0763-4.2172-0.34051-1.0962-0.41677-2.1314-0.71447-2.3004-0.66156-0.73057 0.2287-1.269-2.6754-1.3125-7.0792-0.0574-5.8068-1.5296-8.2566-4.9619-8.2566-1.1834 0-2.5241 0.37249-2.9794 0.82776-0.6156 0.6156-0.94924 0.63121-1.3017 0.0609-0.26067-0.42177-1.2232-0.62368-2.1389-0.4487-1.6488 0.31506-1.665 0.38583-1.665 7.272v6.9538l2.5449 4.7e-4c2.1045 3.8e-4 2.4881-0.20142 2.2164-1.1662-1.9072-6.7735-0.0294-12.212 3.2707-9.4734 1.2402 1.0293 1.3469 8.8278 0.13464 9.8378-0.65749 0.54783-0.7859-0.38225-0.60854-4.4076l0.22479-5.102-1.3915 1.2592c-1.0416 0.94264-1.3915 2.0615-1.3915 4.4499 0 1.7549 0.31516 3.3854 0.70035 3.6235 0.4183 0.25852-0.0386 1.0678-1.1344 2.0094-1.3647 1.1726-2.0566 1.3925-2.7004 0.85821-0.47607-0.3951-0.86558-0.48513-0.86558-0.20007 0 0.28505-0.6-0.0247-1.3333-0.68837-1.2429-1.1248-1.416-1.1318-2.5525-0.10332-1.4821 1.3413-2.789 1.3985-4.436 0.19419-1.0682-0.78109-1.5328-0.73834-3.2986 0.30351-2.0085 1.1851-2.1056 1.1808-4.2669-0.18763zm-13.047-1.616c1.8065-0.85723 2.2674-1.4671 2.2674-3 0-1.0582 0.3-1.924 0.66667-1.924 0.36666 0 0.66666-1.6323 0.66666-3.6273s-0.3-3.8127-0.66666-4.0394c-0.36667-0.22661-0.66667-1.6017-0.66667-3.0558 0-2.2246-0.27119-2.7469-1.7101-3.294-0.94053-0.35759-3.1155-0.64904-4.8333-0.64767-6.0014 5e-3 -10.116 4.2327-10.121 10.399-6e-3 7.6932 7.4803 12.471 14.397 9.1893zm-7.9327-3.9727c-3.2911-3.2911-3.1245-8.385 0.37049-11.326 1.6081-1.3531 2.5207-1.6541 4.0739-1.3434 2.1047 0.42094 4.4224 2.1283 4.4224 3.2578 0 0.36667-0.525 0.19355-1.1667-0.38471-3.3053-2.9787-7.7587-1.6743-8.5422 2.502-0.64933 3.4612 0.0484 5.1978 2.6513 6.599 2.2289 1.1999 2.442 1.2048 4.7497 0.1097 3.0032-1.4251 3.6306-0.97876 1.253 0.89141-2.4844 1.9542-5.6768 1.8292-7.812-0.30595zm57.577 4.3585c0.90633-0.48506 1.7108-0.46468 2.7072 0.0686 1.0596 0.56706 1.8381 0.56712 3.0823 2.4e-4 1.552-0.70716 1.5914-0.83937 0.58234-1.9544-0.75433-0.83352-1.0823-2.4519-1.0823-5.3404 0-3.5114-0.24995-4.3944-1.6364-5.7808-3.2841-3.2841-9.697-1.5006-9.697 2.697 0 1.229 0.35446 1.6667 1.3498 1.6667 0.82641 0 1.5956-0.6463 1.9835-1.6667 0.68524-1.8023 1.9278-2.1388 3.2-0.86667 1.2901 1.2901 0.97355 1.7275-2.2972 3.1743-1.7035 0.75352-3.4939 1.8926-3.9788 2.5312-2.7389 3.6074 1.6012 7.7109 5.7865 5.471zm-2.6885-2.9501c-0.66477-0.801-0.41342-1.2146 1.4184-2.3342l2.2263-1.3606 0.21784 1.3709c0.42418 2.6693-2.2437 4.2745-3.8625 2.324zm2.6947-1.2098c-0.0825-0.79713-0.99686-0.64276-1.2833 0.21667-0.14667 0.44 0.0933 0.68 0.53333 0.53333 0.44-0.14667 0.7775-0.48417 0.75-0.75zm-24.583 3.3833c-0.51338-0.51337-0.8-3.1407-0.8-7.3333 0-3.5933-0.225-6.5122-0.5-6.4865-0.275 0.0258-1.0755 0.2724-1.7788 0.54807-1.1387 0.44629-1.2848 1.2447-1.3333 7.2861l-0.0545 6.7849 2.6333 3.8e-4c2.0481 3e-4 2.4556-0.17739 1.8333-0.79962zm16.989-1.9917c-0.21282-0.53182-0.37079-0.37385-0.40278 0.40278-0.0289 0.70277 0.12862 1.0965 0.35015 0.875 0.22153-0.22153 0.24521-0.79653 0.0526-1.2778zm1.5204-3.5125c0.92681-1.1167 0.39153-2.3625-1.0151-2.3625-0.58026 0-0.96066 0.65996-0.96066 1.6667 0 1.8726 0.77316 2.1449 1.9758 0.69587zm-18.939-11.145c0.60808-1.9159-1.3291-3.4647-3.1289-2.5015-1.2199 0.65287-1.6699 2.6332-0.7968 3.5063 1.0261 1.0261 3.4805 0.39786 3.9257-1.0048zm-114.29 17.203c-1.1464-1.1828-2.0829-2.4362-2.081-2.7854 0.0018-0.34921 0.6785 0.20878 1.5037 1.24 1.0703 1.3374 2.3063 1.983 4.3114 2.252 2.5587 0.34319 3.0221 0.16592 5.1629-1.9749 2.6382-2.6382 3.1071-2.3283 0.89457 0.59147-0.80156 1.0578-1.5206 2.0172-1.5978 2.1322-0.07723 0.1149-1.4834 0.31835-3.1249 0.45211-2.6431 0.21538-3.2229-3e-3 -5.0689-1.9073zm127.42 1.5565c-2.1556-0.86304-1.8523-1.3102 0.88889-1.3102 1.5478 0 2.296 0.27875 2.125 0.79167-0.36002 1.0801-1.2352 1.2306-3.0139 0.51852zm-187.49-2.9768c-0.05764-0.73334-0.19381-5.0622-0.3026-9.6198-0.17351-7.2692-0.08224-8.1285 0.74354-7 0.68168 0.93158 0.9101 3.1064 0.8281 7.8844-0.10415 6.0682-0.9961 12.208-1.269 8.7354zm94.194-1.4297c-0.44016-1.147 1.3283-2.9036 2.9233-2.9036 1.242 0 1.0847 3.1093-0.18194 3.5953-1.6694 0.64062-2.2902 0.48397-2.7414-0.69174zm2.7959-0.9036c0.22661-0.36666-0.0557-0.66666-0.62732-0.66666-0.57164 0-1.0394 0.3-1.0394 0.66666 0 0.36667 0.2823 0.66667 0.62733 0.66667 0.34502 0 0.81273-0.3 1.0393-0.66667zm-35.35-5.3596c-0.15713-0.25424 0.3248-1.0147 1.071-1.69 1.0379-0.93929 1.6216-1.0609 2.4843-0.51764 2.0943 1.3188 1.6715 2.5633-0.88956 2.6185-1.309 0.0282-2.5085-0.15666-2.6657-0.4109zm3.5023-1.0432c-0.22153-0.22153-0.79653-0.24522-1.2778-0.0526-0.53182 0.21282-0.37385 0.37079 0.40278 0.40278 0.70278 0.029 1.0965-0.12862 0.875-0.35014zm55.95 1.1921c-2.4886-0.20454-2.5294-0.24837-1.3967-1.5 1.3941-1.5404 2.5086-1.6367 3.6082-0.31172 1.2492 1.5052 0.59354 2.0423-2.2115 1.8117zm1.3829-1.1921c-0.22153-0.22153-0.79653-0.24522-1.2778-0.0526-0.53182 0.21282-0.37385 0.37079 0.40278 0.40278 0.70278 0.029 1.0965-0.12862 0.875-0.35014zm-117.15-3.2639c0-2.8413 0.09877-3 1.8667-3 2.2207 0 3.4667 1.0782 3.4667 3s-1.2459 3-3.4667 3c-1.7679 0-1.8667-0.15873-1.8667-3zm4.2117 1.4099c0.1949-0.50791-0.12035-1.6012-0.70056-2.4296-0.971-1.3863-1.1205-1.4164-1.8792-0.37888-0.45334 0.61998-0.671 1.7133-0.48369 2.4296 0.39044 1.493 2.5342 1.7582 3.0634 0.37889zm89.061-16.816c-0.40537-0.48844-1.7576-1.2571-3.0049-1.7082-1.2473-0.45104-2.2679-1.1949-2.2679-1.653s-0.40935-1.0728-0.90968-1.3661c-3.4378-2.0147-4.5266-11.101-1.9236-16.054 0.825-1.5696 1.5-2.9793 1.5-3.1326 0-0.15333-1.0404 0.1559-2.3119 0.6872-4.5571 1.9041-11.034 0.70987-14.104-2.6004-0.90113-0.97183-1.4686-1.767-1.261-1.767s-0.08027-0.8851-0.63969-1.9669c-1.1913-2.3037-1.349-7.4345-0.26193-8.5216 0.41535-0.41535 0.57894-1.2145 0.36352-1.7759-0.34212-0.89155-0.77602-0.85066-3.4297 0.32318-4.5797 2.0258-10.351 1.6592-13.145-0.83496-1.1646-1.0398-2.3812-1.8905-2.7034-1.8905-0.32227 0-0.41636-0.27438-0.20911-0.60973 0.20726-0.33535 0.1198-0.71035-0.19435-0.83333-0.31415-0.12298-1.3254-1.4282-2.2471-2.9005-1.4953-2.3884-1.621-3.0815-1.1665-6.4308 0.28017-2.0646 0.72659-4.46 0.99203-5.3231 0.67277-2.1875 4.7649-5.8393 8.2064-7.3235 3.0492-1.315 8.0778-1.664 9.1447-0.63478 0.34833 0.33602 1.2333 0.71102 1.9667 0.83333 0.73333 0.12231 1.5269 0.48927 1.7635 0.81546 0.23661 0.32619 0.4186-1.9305 0.40441-5.0149-0.02892-6.2877 1.1159-9.4619 3.8641-10.714 0.89903-0.40963 1.6346-0.99662 1.6346-1.3044 0-0.8672 9.9055-0.65987 11.544 0.24162 2.5243 1.389 3.3838 1.2374 1.9831-0.34991-2.6114-2.9592-3.5269-5.1124-3.5269-8.2946 0-1.7729-0.36-3.5835-0.8-4.0235-0.62222-0.62222-0.62222-0.8 0-0.8 0.44 0 0.8-0.45942 0.8-1.0209 0-0.56151 0.42292-1.1832 0.93983-1.3816s1.1133-1.0139 1.3254-1.8124c0.21204-0.79847 1.3641-1.9428 2.5602-2.543 1.196-0.60019 2.0996-1.4252 2.008-1.8333-0.10288-0.45809 0.91764-0.73088 2.6667-0.71282l2.8333 0.02926-2.5752 0.91802c-3.3483 1.1936-6.1883 3.9631-7.7998 7.6061-1.5752 3.5609-1.5907 4.3024-0.17715 8.4509 1.0279 3.0168 5.4134 7.9798 19.184 21.711 0.22668 0.22603-1.2653 1.2317-3.3155 2.2348-3.4288 1.6775-3.8216 1.7388-4.8987 0.76403-0.64406-0.58286-2.1524-1.4019-3.352-1.82l-2.181-0.76029 3.0576-3.1043c1.6817-1.7074 3.053-3.394 3.0474-3.748-6e-3 -0.35407-0.24901-0.26764-0.54089 0.19207-0.37173 0.58549-1.2028-0.06127-2.7749-2.1594-1.2343-1.6474-2.3837-2.8557-2.5541-2.6853-0.17045 0.17045 0.0201 0.70756 0.42347 1.1936 0.5726 0.68994-2.293 3.8933-13.072 14.612-7.5928 7.5506-14.46 14.06-15.261 14.466-2.761 1.3983-6.1489 0.90161-8.2618-1.2112-1.5955-1.5955-1.9487-2.511-1.9487-5.0513 0-2.5399 0.35322-3.4558 1.9478-5.0504 1.3434-1.3434 2.3156-1.8067 3.133-1.493 1.0053 0.38578 0.91208 0.5458-0.61448 1.0547-0.98979 0.32993-1.7996 1.0343-1.7996 1.5652s-0.45 1.138-1 1.3491c-1.0732 0.41183-1.4634 5.0365-0.4 4.7411 0.33-0.09167 0.60775 0.11848 0.61722 0.46699 0.0095 0.34851 0.65874 0.87098 1.4428 1.161s1.2386 0.8299 1.0101 1.1997c-0.3894 0.63006 0.27377 0.83897 2.6632 0.83897 2.8599 0 3.6667-0.25671 3.6667-1.1667 0-0.55 0.45942-1 1.0209-1s1.2179-0.525 1.4587-1.1667c0.24077-0.64167 0.90635-1.523 1.4791-1.9586 0.9074-0.69009 0.71668-1.1001-1.4831-3.1882-1.3884-1.318-3.4134-2.5741-4.5-2.7914-2.4365-0.4873-2.6553-1.7111-0.22717-1.2708 1.7638 0.31984 3.2256 1.3619 6.0719 4.3283l1.5537 1.6193 1.0253-1.4638c0.57024-0.81414 1.3749-1.2635 1.813-1.0124 0.43324 0.24825 0.56532 0.20588 0.2935-0.09417-0.27182-0.30005-0.17546-0.92963 0.21414-1.3991 0.53232-0.6414 0.01028-1.485-2.1006-3.3947-4.1473-3.7519-4.9068-4.1814-8.191-4.6315-4.6779-0.64118-7.5586 0.20898-10.785 3.183-3.9026 3.5973-5.4714 8.0927-4.2931 12.301 1.068 3.8144 5.199 8.4808 8.7742 9.9113 5.3374 2.1356 9.9045 0.19382 17.397-7.3966 4.6539-4.7146 5.1449-5.0463 5.1449-3.4754 0 0.95519-0.46 2.1185-1.0222 2.5851-0.56221 0.46659-0.93721 1.0901-0.83333 1.3855s6.0737 6.4754 13.266 13.733c7.1926 7.2579 13.55 14.122 14.127 15.253 1.4793 2.8992 0.97735 6.7316-1.1618 8.8708-1.3661 1.3661-2.3918 1.7394-4.779 1.7394-2.6144 0-3.3224-0.31663-5.0622-2.2637-1.8141-2.0304-1.9802-2.5732-1.6112-5.2657 0.27786-2.0272 1.1599-3.9154 2.7165-5.815l2.3051-2.813-2.4726-2.8886c-1.3599-1.5888-2.4226-3.0533-2.3614-3.2546 0.0611-0.20129-0.0139-0.44098-0.16667-0.53264-0.15278-0.09167-0.13038 0.03073 0.0498 0.27199 0.18015 0.24126 0.0156 0.81456-0.3657 1.274-0.48215 0.58095-0.47218 0.97196 0.0327 1.284 0.45461 0.28097-0.18053 1.4521-1.6991 3.133-4.4849 4.9642-5.6233 10.665-3.1089 15.57 1.7543 3.4219 3.7597 5.2428 7.6879 6.9804 3.4946 1.5458 5.6922 1.3896 9.7921-0.69633 4.4712-2.2747 7.3471-6.9098 7.3187-11.795-0.0285-4.9165-2.1921-7.9527-14.687-20.611-6.5808-6.667-11.965-12.438-11.965-12.824 0-0.38625 3.3228 2.8864 7.3841 7.2724s7.6789 7.9747 8.0394 7.9747c0.3604 0 0.42999-0.375 0.15463-0.83333-0.28752-0.47859 0.0235-0.40764 0.73059 0.16667 0.67719 0.55 1.6343 1.9642 2.1269 3.1426 0.49259 1.1784 1.5174 2.4754 2.2774 2.8821 1.3501 0.72256 1.356 0.7002 0.25776-0.97596-0.61821-0.9435-0.86451-1.7201-0.54734-1.7257 0.31717-0.0056 0.19508-0.2524-0.27132-0.54841-0.5929-0.3763 3.2406-4.6133 12.743-14.085 7.4752-7.4506 14.307-13.943 15.181-14.428 0.87458-0.48477 2.6841-0.89204 4.0211-0.90503 3.1992-0.03109 6.5691 3.5334 6.5691 6.9484 0 4.3887-5.1003 8.0381-9.3491 6.6896-0.80574-0.25573-2.6188-1.5074-4.0291-2.7815l-2.5641-2.3165-4.7909 3.7696 2.8666 2.5405c1.5766 1.3973 4.3214 3.2924 6.0995 4.2115 4.171 2.1559 3.6548 2.6816-0.81074 0.82583-3.9262-1.6317-4.752-1.3558-3.1698 1.0589 1.2325 1.8811 0.92185 5.9889-0.69555 9.1967-0.50842 1.0083-0.7667 1.8333-0.57395 1.8333s-0.24955 0.6-0.98288 1.3333c-0.73333 0.73333-1.3333 1.5841-1.3333 1.8907 0 1.1199-7.7119 2.7655-9.9508 2.1234-1.1691-0.33528-2.5706-0.43881-3.1146-0.23006-0.54399 0.20875-0.9018 0.11774-0.79514-0.20225s-0.48107-1.2568-1.3061-2.0818c-2.2237-2.2237-1.8176-0.42623 0.59061 2.6144 2.9079 3.6715 3.6324 9.9949 1.6152 14.096-0.75483 1.5345-1.9724 3.3331-2.7058 3.997-3.1227 2.827-4.2357 3.6683-4.5015 3.4026-0.15526-0.15527-1.156 0.0125-2.2237 0.37283-3.2916 1.1108-6.8698 1.2404-7.6687 0.27791zm5.7272-8.2604c0.22662-0.36667 1.0443-0.66667 1.8171-0.66667 0.7728 0 1.2194-0.18571 0.9924-0.41269-0.22699-0.22699 0.023-0.84842 0.55555-1.381 1.0908-1.0908 1.2642-4.0164 0.37504-6.3296-0.51029-1.3276-5.0508-6.5434-5.6962-6.5434-0.1239 0-0.72684 1.057-1.3399 2.3488-0.61302 1.2918-1.381 2.1842-1.7066 1.9829-0.64491-0.39858-1.9877 3.7559-1.9937 6.1683-2e-3 0.825 0.24559 1.5 0.5503 1.5s0.94721 0.7347 1.4278 1.6327c0.48058 0.89797 1.5063 1.7571 2.2793 1.9092 0.77305 0.15209 1.6128 0.31739 1.8662 0.36732 0.25336 0.0499 0.64606-0.20921 0.87267-0.57588zm-14.916-16.197c2.9303-1.3448 5.9459-4.2841 5.5238-5.3841-0.21229-0.55322-1.131-1.494-2.0416-2.0907-1.5753-1.0322-1.7646-1.0018-3.8995 0.62667-6.4129 4.8914-12.468-1.6467-6.8718-7.4203l2.1277-2.1953-1.6729-1.8365c-1.0863-1.1925-1.657-2.5796-1.6277-3.9556 0.0421-1.9769-0.0332-2.0483-1.1215-1.0633-0.64167 0.5807-1.143 1.3843-1.114 1.7858 0.02895 0.4015 0.21526 0.32106 0.41403-0.17876 0.25654-0.64508 0.49724-0.68898 0.82954-0.15131 0.26325 0.42594-0.61897 1.9002-2.0157 3.3685-3.0798 3.2375-4.2255 6.5113-3.6416 10.405 1.0174 6.7845 8.8357 10.97 15.111 8.0898zm36.582-0.1359c4.1507-2.1464 6.8736-8.1012 5.7506-12.576-0.22855-0.9106-1.4428-3.0015-2.6984-4.6464s-2.0807-3.2086-1.8335-3.4749c0.24717-0.26628-0.15059-0.17106-0.88393 0.2116-0.73333 0.38266-2.0606 1.4733-2.9495 2.4236l-1.6162 1.7279 1.3662 1.5c2.1201 2.3276 2.982 4.4126 2.4909 6.0252-0.78932 2.5919-2.364 3.8082-4.9306 3.8082-1.9049 0-2.9232-0.50618-4.6941-2.3333-2.5548-2.6359-1.8098-3.2123 0.90265-0.6985 0.97021 0.89916 1.7686 1.4242 1.7742 1.1667 6e-3 -0.25749 0.23061-0.12716 0.5 0.28962 0.36578 0.56593 1.0805 0.56593 2.8231 0 1.8033-0.58564 2.3805-1.1668 2.5411-2.5581 0.25269-2.1896-0.90074-4.533-2.2312-4.533-0.5972 0-0.97655-0.64742-0.97655-1.6667 0-0.91667-0.225-1.6691-0.5-1.672-0.86808-0.0093-7.4843 7.4915-7.1232 8.0756 0.18956 0.30671-0.41766 1.2205-1.3494 2.0306-0.93172 0.81012-1.694 1.7938-1.694 2.1861 2e-5 0.86767 4.0574 4.1791 6.1504 5.0197 2.3668 0.95053 7.0539 0.79439 9.1815-0.30586zm-36.427-7.9732c2.0737-1.5817 2.2379-1.6059 3.4693-0.51113 0.71093 0.63203-0.49801-0.72559-2.6865-3.0169-2.1885-2.2913-4.3417-4.1661-4.7848-4.1661-1.0441 0-4.9027 4.6767-4.9027 5.9423 0 0.53449 0.67368 1.6889 1.4971 2.5654 1.8123 1.9291 4.1483 1.6726 7.4077-0.81349zm-11.94-11.751c-0.21465-0.34731-0.67444-0.45585-1.0217-0.2412-0.34731 0.21465-0.45585 0.67444-0.2412 1.0217 0.21465 0.34731 0.67444 0.45585 1.0217 0.2412 0.34731-0.21465 0.45585-0.67444 0.2412-1.0218zm67.086-3.8918c1.2434-1.2434 1.9454-2.6308 1.9396-3.8333-0.0154-3.1904-0.73293-4.8846-2.0686-4.8846-0.69057 0-1.2556-0.3-1.2556-0.66667 0-0.92694-4.0401-0.79224-5.7072 0.19029-2.1662 1.2767-6.2928 4.7586-6.2928 5.3097-1e-5 0.275 0.4594 0.5 1.0209 0.5 0.5615 0 1.1947 0.45277 1.407 1.0062 0.53491 1.394 5.5728 4.3132 7.4567 4.3209 0.8532 0.0035 2.4282-0.87062 3.5-1.9424zm-64.718-10.718c0-0.36667-0.3177-0.66667-0.70601-0.66667-0.38831 0-0.5206 0.3-0.29399 0.66667 0.22661 0.36667 0.54432 0.66667 0.70601 0.66667 0.1617 0 0.29399-0.3 0.29399-0.66667zm3.3333-5.4872c0-0.31407-0.75-1.3799-1.6667-2.3685-3.3251-3.5859-1.4195-8.811 3.2133-8.811 1.5745 0 3.0658 0.71101 5.1667 2.4634 1.6243 1.3549 2.7241 2.2007 2.444 1.8796-0.28014-0.32111 0.2906-1.4188 1.2683-2.4393 2.0548-2.1447 1.7752-2.7692-2.6923-6.0148-2.1222-1.5417-3.2861-1.888-6.3333-1.8845-9.8574 0.0116-13.955 10.405-7.3457 18.63l2.1851 2.7191 1.8803-1.8015c1.0342-0.99081 1.8803-2.0584 1.8803-2.3725zm23.972-1.5487c0.0155-0.3864-0.96098-1.6613-2.17-2.8331l-2.1982-2.1306-5.0924 5.2151 5.0827 3.2168 2.1748-1.3828c1.1962-0.76054 2.1875-1.699 2.2031-2.0854zm-17.81-2.2191c1.5176-2.2785 1.5137-2.2998-0.88022-4.6937-2.517-2.517-3.6715-2.5663-6.0789-0.25989-1.7487 1.6754-2.5468 4.2086-1.3259 4.2086 0.86312 0 3.4834 5.0755 2.9434 5.7014-0.26803 0.31073 0.56267-0.28472 1.846-1.3232 1.2833-1.0385 2.8564-2.6735 3.4956-3.6332zm15.171 32.692c0-0.30984 0.6-1.1063 1.3333-1.77 0.73333-0.66366 1.3333-1.0102 1.3333-0.76999s-0.6 1.0367-1.3333 1.77c-0.73333 0.73333-1.3333 1.0798-1.3333 0.76999zm36.333-3.411c0.73333-0.30291 2.6204-0.93461 4.1935-1.4038 3.0156-0.8994 7.0183-4.6721 8.1696-7.7002 1.0571-2.7803 0.72932-7.4604-0.72163-10.305-0.7472-1.4646-1.1816-2.9492-0.96537-3.2991 0.21775-0.35234-0.0684-0.45903-0.64146-0.23914-0.56904 0.21836-1.0346 0.09169-1.0346-0.2815 0-1.1487-5.6058-3.4643-8.3772-3.4604-4.7642 0.0068-7.1368 1.1541-12.269 5.9331-2.7356 2.5472-5.2058 4.4878-5.4893 4.3126-0.28356-0.17525-0.3369 0.14694-0.11854 0.71599s0.0899 1.0346-0.28541 1.0346c-1.2988 0-1.2851-1.6727 0.0255-3.1149l1.3161-1.4482-13.568-13.755c-7.9901-8.1007-13.943-14.688-14.48-16.023-2.3987-5.9589 2.9969-11.971 8.6442-9.6317 2.7676 1.1464 3.9687 3.2084 4.0437 6.9418 0.0555 2.7655-0.23283 3.4362-2.4562 5.7131-2.487 2.5469-2.5046 2.602-1.3801 4.3182 1.6313 2.4897 2.8856 2.7275 4.8417 0.91778 8.2739-7.6547 6.7443-20.179-2.8838-23.612l-2.5632-0.91391 2.4744-0.02926c2.0432-0.02416 3.0017 0.4832 5.5 2.9113 1.6641 1.6173 3.0479 3.3423 3.0751 3.8333 0.0273 0.49104 0.14949 1.4928 0.27164 2.2261 0.93585 5.6182 0.83865 8.3435-0.37855 10.615-0.7032 1.312-1.053 2.406-0.77726 2.431 0.27571 0.02503 3.0095 0.0057 6.0751-0.043 4.9325-0.07833 5.6847 0.06985 6.5378 1.2878 0.53021 0.75698 1.4147 1.3763 1.9656 1.3763 0.55085 0 0.83197 0.27438 0.62471 0.60973-0.20725 0.33535-0.14996 0.71035 0.12733 0.83333 0.27728 0.12298 1.2068 1.531 2.0655 3.1289 1.1286 2.1001 1.3596 3.1071 0.83333 3.6333-0.4004 0.4004-0.72912 1.493-0.7305 2.428-1e-3 0.935-0.59696 2.675-1.3235 3.8667-0.72657 1.1917-1.0498 2.1667-0.7182 2.1667 0.96524 0 4.702-2.2807 4.7067-2.8727 2e-3 -0.29664 0.31735-0.34581 0.70008-0.10927 0.38273 0.23654 1.1256 0.07347 1.6507-0.36238 0.57252-0.47515 2.0957-0.65741 3.8041-0.45518 2.9855 0.3534 7.9848 1.6137 6.8676 1.7313-0.77318 0.08138 2.3733 2.3897 3.267 2.3967 0.34029 0.0027 0.84447 0.84905 1.1204 1.8808 0.27594 1.0318 0.88961 2.3433 1.3637 2.9146 0.91225 1.0992 1.287 10.318 0.39718 9.7712-0.275-0.16891-0.52295-0.0644-0.55101 0.23224-0.19658 2.0786-0.7814 3.0589-2.9725 4.9827-2.9748 2.6119-7.127 4.5736-9.5493 4.5115-1.57-0.04024-1.6162-0.10472-0.4272-0.59587zm-13.667-20.43c0-0.1441-0.6177-0.26201-1.3727-0.26201-0.75498 0-1.1954 0.2869-0.97865 0.63755 0.35574 0.5756 2.3513 0.25688 2.3513-0.37554zm1.1937-3.2048c3.9882-4.5423 4.454-10.438 1.1653-14.75-3.6453-4.7792-10.062-5.8309-14.759-2.4188-4.3614 3.1684-4.7182 3.878-2.915 5.7974 1.92 2.0438 2.2188 2.0426 4.9224-0.01954 2.6007-1.9837 5.0114-2.1256 7.1187-0.41923 2.2757 1.8428 2.1026 5.4812-0.38421 8.0769l-1.9247 2.009 1.9161 2c1.0539 1.1 2.1289 2 2.389 2 0.26008 0 1.3722-1.0243 2.4714-2.2762zm-4.1056-7.6254c0.36082-1.9233 0.17451-2.5434-1.0659-3.5479-2.0334-1.6466-3.5465-1.5313-5.9006 0.44947-2.341 1.9698-3.2109 2.0585-5.0691 0.51693-1.6292-1.3516 2.9256 3.6879 6.2275 6.8902l2.28 2.2113 1.5454-2.0947c0.84997-1.1521 1.7422-3.1435 1.9826-4.4254zm-14.421-6.2318c0-1.0769-0.19714-1.2695-0.74191-0.72476-0.40805 0.40805-0.54035 1.0681-0.29399 1.4667 0.68959 1.1158 1.0359 0.86776 1.0359-0.74191zm3.8477-5.5746c-0.22346-0.22347-0.76565 0.29439-1.2049 1.1508-0.76341 1.4886-0.74553 1.5065 0.40631 0.4063 0.66267-0.63294 1.022-1.3336 0.79855-1.5571zm-10.129 0.45843c-0.1981-0.32054 0.30919-1.3223 1.1273-2.2261 3.1892-3.5232 5.1342-9.1911 3.1542-9.1911-0.36667 0-0.66667-0.32691-0.66667-0.72647 0-1.0454-2.7935-3.2252-4.1667-3.2513-0.64167-0.0122-1.1667 0.27782-1.1667 0.64449 0 0.36667-0.225 0.63114-0.5 0.58772-3.005-0.47448-4.5182 2.0455-3.8632 6.4334 0.27364 1.8331 1.2187 3.5821 2.9719 5.5 2.2932 2.5087 4.0694 3.7821 3.1098 2.2294zm4.6148 41.916c0.22662-0.36667 0.71203-0.66667 1.0787-0.66667 0.36667 0 0.48126 0.3 0.25465 0.66667-0.22662 0.36667-0.71203 0.66667-1.0787 0.66667-0.36667 0-0.48126-0.3-0.25465-0.66667zm4.2799-3.9421c1.3246-1.4348 3.0744-3.9098 3.8883-5.5 0.81397-1.5902 1.4841-2.5013 1.4892-2.0248 0.0218 2.0438-5.8053 10.134-7.2992 10.134-0.26768 0 0.5971-1.1739 1.9217-2.6088zm-24.209-6.4458c-0.87249-2.2737-0.38172-6.1282 1.0047-7.8907 1.9147-2.4341 2.418-1.6691 0.55755 0.84741-1.1942 1.6153-1.4169 2.6014-1.1406 5.0524 0.36117 3.2043 0.24838 3.7369-0.42163 1.9909zm29.006-4.5692c-0.0425-0.7097-0.72963-1.9847-1.5269-2.8333s-1.1042-1.543-0.68203-1.543c1.1519 0 2.9528 3.0974 2.5974 4.4672-0.28078 1.0822-0.31876 1.0733-0.38853-0.09092zm-17.58-2.3164c-2.1447-2.2723-2.4675-3.5091-0.43609-1.6707 1.2556 1.1363 2.9411 3.6108 2.4596 3.6108-0.10576 0-1.0163-0.87306-2.0235-1.9401zm5.8355-0.72654c0.66366-0.73333 1.3566-1.3333 1.54-1.3333s-0.20966 0.6-0.87332 1.3333c-0.66365 0.73333-1.3566 1.3333-1.54 1.3333s0.20966-0.6 0.87332-1.3333zm-3.4873-47.129c0.64864-0.16903 1.5486-0.15791 2 0.0247 0.45135 0.18262-0.0794 0.32091-1.1794 0.30733-1.1-0.01359-1.4693-0.163-0.82064-0.33203z" fill="#C9A36B"/>
    <path d="m86.541 169.45c-0.40232-0.40232-0.7315-2.2965-0.7315-4.2093 0-2.1584-0.31614-3.6053-0.83333-3.814-0.45833-0.18494 2.5417-0.35994 6.6667-0.38889l7.5-0.0526v3.9184c0 4.5246-1.0029 5.9774-3.0547 4.4249-0.70325-0.53213-0.92134-0.97704-0.48465-0.9887 0.43669-0.0117 0.98242 0.28369 1.2127 0.65634 0.89745 1.4521 1.6599-0.25525 1.6599-3.7169v-3.6273h-12v3.6667c0 3.5278 0.06734 3.6667 1.7778 3.6667 0.97778 0 1.5691 0.20868 1.314 0.46374-0.77456 0.77456-2.253 0.77509-3.027 1e-3zm27.646 0.27301c-0.25081-0.40581-0.13831-0.73784 0.25-0.73784 0.3883 0 0.70601-1.2 0.70601-2.6667 0-1.4667 0.3-2.6667 0.66666-2.6667 0.36667 0 0.66667 1.2 0.66667 2.6667 0 2.6032 0.0556 2.6667 2.3333 2.6667h2.3333v-3.6667c0-3.6296-0.0202-3.6667-2-3.6667-1.1 0-2-0.3-2-0.66667s0.99394-0.66667 2.2088-0.66667c2.1618 0 2.2122 0.0661 2.3697 3.1091 0.0885 1.71 0.1801 3.285 0.20352 3.5 0.24967 2.292-2.1133 3.5984-4.7267 2.6133-1.0914-0.41138-1.7637-0.36095-2.0833 0.15628-0.34204 0.55342-0.59753 0.56053-0.92799 0.0258zm38.596-0.11359c-0.2122-0.34334 0.3819-0.62425 1.3202-0.62425 0.93831 0 1.706 0.23616 1.706 0.5248 0 0.75649-2.568 0.84088-3.0262 0.0995zm-59.765-0.41299c0.48125-0.19258 1.0562-0.1689 1.2778 0.0526 0.22153 0.22153-0.17222 0.37909-0.875 0.35015-0.77663-0.032-0.9346-0.18996-0.40278-0.40278zm34.792-0.21456c2.3684-0.75379 11.494-0.79612 11.034-0.0512-0.20809 0.3367-3.1508 0.60531-6.5393 0.59691-4.0245-0.01-5.583-0.19923-4.4943-0.54573zm16.982-0.69257c-0.23653-0.38273-0.0675-1.1327 0.37562-1.6667 0.63427-0.76425 0.61102-1.2108-0.10927-2.0988-0.67998-0.83828-0.69345-0.99476-0.0524-0.60927 0.48125 0.2894 1.3546 0.12495 1.9756-0.37203 0.82251-0.6582 0.72585-0.22473-0.37025 1.6605-0.81584 1.4032-1.3122 2.8282-1.103 3.1667 0.20922 0.33852 0.23039 0.61549 0.0471 0.61549-0.18333 0-0.52687-0.31314-0.76341-0.69587zm3.7531-0.7652c0.43007-0.80358 1.0148-2.2286 1.2995-3.1667 0.34418-1.1343 0.53674-1.3037 0.57485-0.50583 0.0586 1.2274-1.7041 5.1336-2.3166 5.1336-0.18682 0 0.0122-0.65748 0.44227-1.4611zm8.4869-2.1566c0.19914-3.1348 0.43868-3.6122 2.3333-4.6506l2.1114-1.1572-1.8333 1.5711c-1.4536 1.2456-1.8333 2.1447-1.8333 4.34 0 1.5229-0.225 2.9087-0.5 3.0795s-0.40013-1.2615-0.27807-3.1829zm-44.555 0.61768c0-1.2833 0.3-2.3333 0.66667-2.3333 0.36666 0 0.66666 1.05 0.66666 2.3333s-0.3 2.3333-0.66666 2.3333c-0.36667 0-0.66667-1.05-0.66667-2.3333zm12.642-5c-0.19667-4.2167-0.0849-8.0417 0.24829-8.5 0.43345-0.59617 2.7171-0.79278 8.0242-0.69083l7.4184 0.14251-14.959 0.42494-0.18702 8.145-0.18701 8.145zm-19.642 6.2265c0.73334-0.1671 2.1583-0.57081 3.1667-0.89714 1.3103-0.42405 1.8324-0.36547 1.83 0.20532-2e-3 0.49385-1.2106 0.83624-3.1667 0.89714-1.7398 0.0542-2.5634-0.0382-1.83-0.20532zm-16.333-0.89317c0-0.36666 1.65-0.66666 3.6667-0.66666 2.0167 0 3.6667 0.3 3.6667 0.66666 0 0.36667-1.65 0.66667-3.6667 0.66667-2.0167 0-3.6667-0.3-3.6667-0.66667zm29.488-1.3333c0-1.2833 0.1372-1.8083 0.30488-1.1667 0.16769 0.64167 0.16769 1.6917 0 2.3333-0.16768 0.64166-0.30488 0.11666-0.30488-1.1667zm34.179 1.4336c1.0106-0.32861 1.3784-1.1194 1.5195-3.2669 0.17177-2.6147 0.0598-2.8333-1.4511-2.8333-0.99869 0-1.7562 0.45502-1.9421 1.1667-0.22943 0.87794-0.32402 0.79545-0.38222-0.33333-0.071-1.3773 0.209-1.4983 3.4227-1.4797 2.7024 0.0157 3.2341 0.17513 2.3333 0.69979-0.83454 0.48608-1.1667 1.5241-1.1667 3.6464 0 2.8082-0.098 2.9633-1.8333 2.9004-1.5221-0.0552-1.607-0.14005-0.5-0.5zm-25-0.71931c0-0.36941 0.825-1.1192 1.8333-1.6663 1.014-0.5501 1.3864-1.0111 0.83333-1.0315-0.88889-0.0328-0.88889-0.1087 0-0.68315 2.1726-1.404 2.9577-0.58937 1 1.0376-3.6768 3.0557-3.6667 3.0492-3.6667 2.3433zm5.4228-0.65264c0.86379-0.69945 1.8521-1.0977 2.1963-0.885 0.34416 0.21271 0.0457 0.6396-0.66334 0.94865-0.98441 0.4291-0.86543 0.48013 0.5034 0.21588 0.98586-0.19031 1.9786-0.0449 2.206 0.32309 0.25415 0.41122-0.78637 0.66911-2.6997 0.66911h-3.1132zm6.384-0.0616c-0.19177-0.73333-0.14893-1.3333 0.0952-1.3333 0.24414 0 0.8186 0.6 1.2766 1.3333 0.68292 1.0935 0.6658 1.3333-0.0952 1.3333-0.51035 0-1.0848-0.6-1.2766-1.3333zm-34.8-0.67754c0.2303-0.37265 0.69801-0.50494 1.0393-0.29399 0.9247 0.57149 0.75227 0.97153-0.41874 0.97153-0.57164 0-0.85091-0.30489-0.6206-0.67754zm-15.673-0.65579c0-0.36667 1.65-0.66667 3.6667-0.66667 2.0167 0 3.6667 0.3 3.6667 0.66667 0 0.36666-1.65 0.66666-3.6667 0.66666-2.0167 0-3.6667-0.3-3.6667-0.66666zm19.333-1.3333c0-1.9259 0.11111-2 3-2 1.65 0 3 0.3 3 0.66667s-0.86501 0.66667-1.9222 0.66667c-1.3616 0-2.024 0.3889-2.2709 1.3333-0.53595 2.0494-1.8068 1.5805-1.8068-0.66667zm28.294 0.27891c-1.1842-0.96487-1.1904-1.0215-0.0729-0.66666 0.67166 0.21326 1.8717 0.39235 2.6667 0.39796 1.1777 8e-3 1.2602 0.12995 0.44547 0.65646-1.3361 0.86348-1.5347 0.83815-3.0392-0.38776zm-31.961-1.6122c-0.22662-0.36667 0.0734-0.66667 0.66666-0.66667 0.59328 0 0.89328 0.3 0.66667 0.66667s-0.52661 0.66667-0.66667 0.66667c-0.14005 0-0.44005-0.3-0.66666-0.66667zm40.658 0.0138c0.22192-0.35909 0.0791-1.2591-0.31745-2-0.48634-0.90874-0.49638-1.3471-0.0308-1.3471 0.37957 0 0.69012 0.45 0.69012 1s0.48674 1 1.0816 1c0.88586 0 0.93142 0.18099 0.25171 1-0.91288 1.1-2.3208 1.3917-1.6752 0.34711zm-15.825-1.1509c0.825-0.15891 1.5-0.56805 1.5-0.90922 0-0.34116 0.6-0.6203 1.3333-0.6203 2.091 0 1.5599 1.1214-0.75 1.5833-1.1458 0.22916-2.4208 0.37581-2.8333 0.32588-0.4125-0.0499-0.075-0.2208 0.75-0.3797zm6.1667-0.50606c0-0.7047 0.65751-1.0235 2.1111-1.0235 1.9465 0 2.46 0.39101 0.88889 0.67686-0.36666 0.0667-1.1917 0.40226-1.8333 0.74567-0.87562 0.46862-1.1667 0.36906-1.1667-0.39907zm-50.243-0.87777c-0.18448-0.29848-0.09695-0.92853 0.19449-1.4001 0.41392-0.66974 0.61679-0.63097 0.9269 0.17715 0.41953 1.0933-0.54884 2.1494-1.1214 1.223zm6.2433-1.1457c0-0.9938 0.28706-1.5679 0.66667-1.3333 0.36667 0.22661 0.66667 0.82661 0.66667 1.3333s-0.3 1.1067-0.66667 1.3333c-0.3796 0.2346-0.66667-0.33953-0.66667-1.3333zm3.3333 0.44445c0-0.88796 0.41671-1.4444 1.0816-1.4444 0.92586 0 0.95303 0.16802 0.18864 1.1667-0.49114 0.64167-0.97788 1.2917-1.0816 1.4444-0.10376 0.15277-0.18864-0.37223-0.18864-1.1667zm3.1623-0.19563c0.38598-1.476 1.2163-1.6278 1.7203-0.31451 0.20831 0.54284-0.14539 1.0661-0.84416 1.2488-0.91197 0.23849-1.1237 0.0127-0.87612-0.93431zm29.76-0.4513c0.0565-1.5519 0.39331-2.1282 1.2442-2.1293 1.4998-2e-3 1.4769 0.80095-0.0775 2.7206l-1.2442 1.5365zm-39.164 0.20248c-0.21106-0.55-0.09315-1 0.26201-1 0.35516 0 0.64574 0.45 0.64574 1s-0.1179 1-0.26201 1-0.43469-0.45-0.64574-1zm16.055-0.30689c-0.22506-0.86061-0.0331-1.3598 0.52301-1.3598 0.48322 0 0.81382 0.44131 0.73466 0.9807-0.2392 1.6298-0.8801 1.8229-1.2577 0.37907zm3.5196-0.24866c0-0.93827 0.39683-1.5556 1-1.5556 0.55 0 1 0.55 1 1.2222 0 1.0765 0.59596 1.2222 5 1.2222 4.8566 0 5-0.0467 5-1.6273 0-0.89503 0.25866-1.7872 0.57481-1.9826 0.31614-0.19538 0.50443 0.31191 0.41841 1.1273-0.086 0.81541-0.19467 1.8576-0.24147 2.3159-0.0615 0.60222-1.8416 0.83333-6.4184 0.83333-6.1905 0-6.3333-0.0351-6.3333-1.5556zm42 0.22222c0-0.40119 2.4557-0.6402 6.1667-0.60021 4.1137 0.0443 5.6118 0.24415 4.5 0.60021-2.4554 0.78635-10.667 0.78635-10.667 0zm-3.3333-0.61778c0-0.33978-0.525-0.72692-1.1667-0.8603-0.94867-0.19719-0.88638-0.31923 0.33333-0.65313 1.1746-0.32155 1.5-0.13492 1.5 0.86029 0 0.69901-0.15 1.2709-0.33333 1.2709s-0.33333-0.278-0.33333-0.61778zm-14-0.7231c0-0.36251 1.7-0.65912 3.7778-0.65912 4.5832 0 4.4617 0.40741-0.27777 0.93134-2.1231 0.23469-3.5 0.1276-3.5-0.27222zm-20.178-1.3821c0.2763-1.0566 0.4986-1.1764 0.92738-0.5 0.82123 1.2955 0.71018 1.8897-0.35321 1.8897-0.62204 0-0.81528-0.4677-0.57417-1.3897zm3.7738 0.33516c0.22256-0.57999 0.40466-1.18 0.40466-1.3333 0-0.15335 0.3-0.27881 0.66666-0.27881 0.36667 0 0.66667 0.6 0.66667 1.3333 0 0.7802-0.44444 1.3333-1.0713 1.3333-0.70302 0-0.93221-0.36254-0.66667-1.0545zm39.738-1.0945c0-0.28469 1.2-0.51762 2.6667-0.51762 1.4667 0 2.6667 0.11849 2.6667 0.26331s-1.2 0.37775-2.6667 0.51762c-1.4667 0.13987-2.6667 0.0214-2.6667-0.26331zm-71.333-0.11296c0-0.63242 1.9956-0.95115 2.3513-0.37554 0.21672 0.35065-0.22368 0.63755-0.97865 0.63755s-1.3727-0.11791-1.3727-0.26201zm5.3333-0.23799c0-0.275 1.05-0.5 2.3333-0.5 1.2833 0 2.3333 0.225 2.3333 0.5s-1.05 0.5-2.3333 0.5c-1.2833 0-2.3333-0.225-2.3333-0.5zm7.1667 0.0585c0.45833-0.18494 1.2083-0.18494 1.6667 0 0.45833 0.18494 0.08333 0.33625-0.83333 0.33625-0.91667 0-1.2917-0.15131-0.83333-0.33625zm50.833 0.17821c0-0.14482 1.2-0.37775 2.6667-0.51762 1.4667-0.13987 2.6667-0.0214 2.6667 0.26331 0 0.28469-1.2 0.51762-2.6667 0.51762-1.4667 0-2.6667-0.11849-2.6667-0.26331zm-42.167-0.87385c0.82499-0.1589 2.175-0.1589 3 0s0.15 0.28891-1.5 0.28891c-1.65 0-2.325-0.13001-1.5-0.28891zm48.833-0.86284c-0.60086-0.38831-0.68309-0.65033-0.20601-0.65646 0.43669-6e-3 0.97939 0.28979 1.206 0.65646 0.51153 0.82768 0.28075 0.82768-1 0zm-132.33-4.6667c-1.1728-0.50397-1.1079-0.57859 0.53934-0.61981 1.0881-0.0272 1.7001 0.23244 1.4607 0.61981-0.22661 0.36667-0.46932 0.64558-0.53934 0.61981-0.07003-0.0258-0.72732-0.30469-1.4607-0.61981zm59.667 0.0463c-0.72108-0.48682-0.30631-0.56368 1.4871-0.27556 1.7599 0.28275 2.9951 0.0667 4.2245-0.73882 1.906-1.2489 2.9134-1.0472 1.3307 0.26639-1.3367 1.1094-5.8041 1.5839-7.0423 0.74799zm18.833 0.16087c0.64166-0.16769 1.6917-0.16769 2.3333 0 0.64167 0.16768 0.11667 0.30488-1.1667 0.30488-1.2833 0-1.8083-0.1372-1.1667-0.30488zm10.281-0.90331c-1.6155-1.2707-1.8672-1.2932-3.7235-0.33333-2.814 1.4552-3.469 1.2757-0.94994-0.26031 1.1589-0.70666 2.3194-1.9805 2.5788-2.8308s0.91562-2.0521 1.4582-2.6706c0.54255-0.61857 0.78936-1.4436 0.54846-1.8333-0.24633-0.39858 0.0788-0.70867 0.74299-0.70867 0.64953 0 1.8564-0.825 2.682-1.8333 0.82559-1.0083 1.5119-1.4583 1.525-1 0.0132 0.45834-0.27603 0.83334-0.6427 0.83334-0.36666 0-0.66666 0.3-0.66666 0.66666 0 0.36667 0.63209 0.66667 1.4047 0.66667 0.99558 0 1.289-0.30131 1.0076-1.0346-0.22766-0.59329-0.1159-0.86089 0.26201-0.62733 1.0361 0.64035 0.76963 2.3286-0.36753 2.3286-2.2178 0-6.2868 2.6882-6.7276 4.4446-0.84414 3.3633 2.6872 5.8354 6.357 4.4502 1.2459-0.47026 2.2831-0.49178 3.0488-0.0633 0.76981 0.43081 1.6972 0.40497 2.7544-0.0768 1.7759-0.80914 2.1396-2.0882 0.59389-2.0882-0.65671 0-0.98549-0.62936-0.95774-1.8333 0.0392-1.701 0.0839-1.73 0.61995-0.40155 0.31773 0.78748 0.89871 1.6302 1.2911 1.8727 0.95108 0.5878 0.96888-9.1156 0.0185-10.066-1.3008-1.3008 1.2731-2.4334 5.8834-2.5888 2.463-0.0831 3.7282-0.017 2.8116 0.14686-0.91667 0.16384-2.0417 0.784-2.5 1.3782-0.76401 0.99039-0.83334 0.98647-0.83334-0.0472 0-1.3434-1.7028-1.4297-3.9234-0.19881-1.0267 0.56912-1.322 1.0471-0.83333 1.3491 1.1952 0.73869 0.98883 10.728-0.24721 11.964-1.4507 1.4507-3.4279 1.9306-4.8401 1.1747-0.75319-0.4031-1.6004-0.42132-2.1918-0.0471-1.6218 1.0261-4.3602 0.70169-6.1835-0.7325zm16.219 0.69619-2.3333-0.49114 2.1273-0.0878c1.17-0.0483 2.3127 0.21224 2.5394 0.57891 0.22661 0.36667 0.31931 0.62717 0.20601 0.57891-0.11331-0.0483-1.256-0.30878-2.5394-0.57891zm11.592 0.0133c-2.3777-0.96071-4.2587-3.9572-4.2587-6.7842 0-2.118-0.3048-2.7299-1.6695-3.3517-2.0972-0.95557-2.3004-0.73461-2.9647 3.2241-0.4787 2.8528-0.55044 2.9581-0.61162 0.8985-0.0381-1.2833 0.12001-3.0405 0.35139-3.9049 0.36386-1.3592 0.72292-1.5225 2.6576-1.2086 2.1349 0.34645 2.2404 0.26615 2.3142-1.7618 0.0425-1.1686 0.21588-1.5927 0.38522-0.94248 0.27722 1.0645 0.50707 1.0147 2.3072-0.5 4.2017-3.5355 10.282-0.94299 10.909 4.6511 0.25494 2.2768 0.21975 2.3743-0.24073 0.66667-1.2535-4.6486-3.0605-6.3333-6.7929-6.3333-1.5004 0-2.6682 0.59793-4.0438 2.0705-1.6343 1.7495-1.9341 2.6222-1.9341 5.6295 0 5.1123 1.9615 7.3 6.5453 7.3 1.8301 0 2.981 0.2204 2.5577 0.48979-1.0094 0.64234-3.7426 0.57133-5.5109-0.14317zm26.774 0.0428c4.4433-0.71879 6.1791-1.8848 6.4952-4.3633l0.2584-2.0261 0.10669 2.09c0.13951 2.7329-2.3221 4.4-6.8742 4.6557l-3.3525 0.1883zm9.967-0.0561c-1.1815-0.50771-1.1246-0.57829 0.5-0.61981 1.0083-0.0258 1.8333 0.25314 1.8333 0.61981 0 0.78248-0.51241 0.78248-2.3333 0zm15 0c0-0.36667 0.7677-0.66667 1.706-0.66667 0.96757 0 1.5277 0.28857 1.294 0.66667-0.22661 0.36667-0.99431 0.66667-1.706 0.66667-0.71169 0-1.294-0.3-1.294-0.66667zm7.9395-0.0515c-0.68378-0.43287-0.44047-0.59756 0.89379-0.60499 1.9908-0.0111 2.3493 0.31582 0.93954 0.85679-0.49158 0.18864-1.3166 0.0753-1.8333-0.2518zm9.3333 0c-0.68378-0.43287-0.44047-0.59756 0.89379-0.60499 1.9908-0.0111 2.3493 0.31582 0.93955 0.85679-0.49159 0.18864-1.3166 0.0753-1.8333-0.2518zm6.2696-0.44853c-0.69957-0.64167-0.88095-0.9034-0.40308-0.58163 0.47787 0.32178 1.842 0.81607 3.0314 1.0984 1.9828 0.47071 2.0163 0.51906 0.40308 0.58163-0.96771 0.0375-2.3318-0.45676-3.0314-1.0984zm7.4756 0.52912c-0.21672-0.35066-0.90942-0.4565-1.5394-0.23522-0.87951 0.30897-0.97016 0.21215-0.39058-0.41718 0.59653-0.64774 1.0404-0.64116 2.1173 0.0314 1.0863 0.67839 1.7272 0.68478 3.1609 0.0315 1.6791-0.76507 1.7266-0.8987 0.71606-2.0154-0.74703-0.82546-1.0823-2.4426-1.0823-5.2202 0-5.4816-1.5588-7.5374-5.715-7.5374-3.4167 0-5.6183 1.698-5.6183 4.3333 0 1.229 0.35446 1.6667 1.3498 1.6667 0.82641 0 1.5956-0.6463 1.9835-1.6667 0.70948-1.8661 2.096-2.1576 3.3091-0.69587 1.0815 1.3031 0.46787 2.1071-1.982 2.5971-2.3874 0.47748-5.2941 3.3618-5.4044 5.3628-0.0684 1.2405-0.11441 1.2583-0.39802 0.1539-0.17638-0.68681 0.29693-2.0841 1.0518-3.1051 1.1396-1.5414 1.2071-1.9198 0.39802-2.2303-1.6667-0.63956-1.1845-4.1538 0.78211-5.7007 2.2602-1.7779 6.8375-1.8607 8.9358-0.16163 1.2357 1.0006 1.5806 2.1236 1.9176 6.2434 0.22598 2.7628 0.79549 5.4868 1.2656 6.0532 0.71594 0.86265 0.609 1.2019-0.65877 2.0899-1.6993 1.1902-3.6057 1.3821-4.1988 0.42252zm-2.3513-11.107c0-1.3374-1.1749-1.1307-1.965 0.34565-0.57719 1.0785-0.4811 1.2163 0.64321 0.92224 0.72698-0.19011 1.3218-0.76066 1.3218-1.2679zm-181.15 10.616c0.64864-0.16903 1.5486-0.15792 2 0.0247 0.45136 0.18261-0.07935 0.32091-1.1794 0.30732-1.1-0.0136-1.4693-0.16299-0.82064-0.33202zm10.654 2e-3c0.64167-0.16768 1.6917-0.16768 2.3333 0 0.64167 0.16769 0.11667 0.30488-1.1667 0.30488s-1.8083-0.13719-1.1667-0.30488zm7.6667 0.018c0.45833-0.18494 1.2083-0.18494 1.6667 0s0.08333 0.33626-0.83333 0.33626c-0.91667 0-1.2917-0.15132-0.83333-0.33626zm7.6794-0.0205c0.64864-0.16903 1.5486-0.15792 2 0.0247 0.45136 0.18261-0.07936 0.32091-1.1794 0.30732-1.1-0.0136-1.4693-0.16299-0.82064-0.33202zm8.6667 0c0.64864-0.16903 1.5486-0.15792 2 0.0247 0.45136 0.18261-0.07935 0.32091-1.1794 0.30732-1.1-0.0136-1.4693-0.16299-0.82065-0.33202zm23.487-0.3118c-1.4942-0.82169-3.6292-3.2476-3.6518-4.1494-0.0082-0.32445 0.57274 0.15706 1.2909 1.07 0.71813 0.91295 2.2931 2.1466 3.5 2.7414 1.2069 0.59482 1.7443 1.0792 1.1943 1.0764-0.55-3e-3 -1.6-0.33505-2.3333-0.73834zm62.915-0.34869c-1.661-1.0309-3.9181-4.0961-3.9127-5.3137 1e-3 -0.3101 0.59862 0.41393 1.3272 1.609 0.72861 1.195 2.3025 2.7689 3.4975 3.4975s1.8728 1.3179 1.5061 1.3095c-0.36667-8e-3 -1.4548-0.5044-2.4181-1.1022zm25.251 0.68096c0.45833-0.18494 1.2083-0.18494 1.6667 0 0.45833 0.18494 0.0833 0.33626-0.83334 0.33626-0.91666 0-1.2917-0.15132-0.83333-0.33626zm-124.72-0.66909c-0.61475-0.61475-0.56253-10.222 0.05556-10.222 0.275 0 0.5 2.4 0.5 5.3333s-0.025 5.3333-0.05556 5.3333c-0.03055 0-0.25556-0.2-0.5-0.44444zm19.471-0.72222c-0.82925-1.0574-0.80567-1.081 0.2517-0.25171 1.1105 0.87092 1.4637 1.4184 0.91496 1.4184-0.13844 0-0.66344-0.525-1.1667-1.1667zm66.774 0.93848c-0.0122-0.30883 0.57782-1.3243 1.3112-2.2566 0.73334-0.93228 1.3333-1.3878 1.3333-1.0123 0 0.83121-2.6132 4.0614-2.6445 3.2689zm41.706-1.1932c-0.18536-0.86827-0.43661-3.7864-0.55834-6.4847-0.17539-3.8875-0.48463-5.0985-1.4895-5.8333-1.5571-1.1386-5.1289-1.2118-6.2133-0.12732-0.62223 0.62222-0.77412-7e-3 -0.68353-2.8333 0.0991-3.0915 0.15342-3.2335 0.36424-0.95199 0.24568 2.6588 0.26871 2.6793 2.7401 2.4436 1.7455-0.16646 2.9738 0.15224 4.0993 1.0636 1.424 1.153 1.6539 2.0136 2.0189 7.5564 0.41867 6.3574 0.32968 8.0127-0.27779 5.1671zm23.354 0.39556c-0.22863-0.5958-0.4157-3.1183-0.4157-5.6055 0-5.3846-1.4214-7.7943-4.8494-8.221l-2.1506-0.26768 2-0.0919c1.1-0.0505 2.7342 0.47243 3.6316 1.1621 1.4597 1.1219 1.6749 1.9105 2.0421 7.4852 0.43511 6.6049 0.40435 7.265-0.25809 5.5387zm-185.3-0.0853c-0.24444-0.24444-0.44444-1.7444-0.44444-3.3333 0-2.8718 0.01419-2.8889 2.3971-2.8889 6.9864 0 10.236-7.8007 4.7221-11.337-0.79891-0.51236-3.8526-1.1247-6.7859-1.3608l-5.3333-0.42927 4.5214-0.10322c5.7733-0.1318 8.7773 1.0799 10.23 4.1266 1.028 2.1557 1.2232 2.2601 3.0408 1.6264 1.0683-0.3724 2.0985-0.52096 2.2893-0.33013 0.19084 0.19084-0.57104 0.54861-1.6931 0.79504-2.3728 0.52116-3.1824 1.4851-2.1306 2.5369 0.98025 0.98025 0.99262 10.475 0.01364 10.475-0.45243 0-0.6736-1.3257-0.58395-3.5 0.07938-1.925 0.1071-4.2418 0.0616-5.1483l-0.08272-1.6483-1.0342 1.4765c-1.2983 1.8536-3.3043 2.9555-6.2991 3.4603-2.2366 0.37696-2.3333 0.51012-2.3333 3.2108 0 1.5496-0.025 2.8171-0.05556 2.8166-0.03055-4.7e-4 -0.25556-0.20086-0.5-0.44531zm15.426-1.4702c-0.15455-1.053-0.05969-2.478 0.21081-3.1667 0.32393-0.82466 0.50781-0.17109 0.53867 1.9146 0.05239 3.5408-0.32182 4.1659-0.74948 1.252zm21.457-3.2219c-0.17995-3.0084-0.08812-5.2294 0.20408-4.9354 0.2922 0.29395 0.43943 2.7554 0.32719 5.4699l-0.20408 4.9354zm126.95-0.82066c0.0323-3.2464 0.27918-5.5591 0.54857-5.1393 0.67933 1.0585 0.6375 10.272-0.0486 10.696-0.30732 0.18994-0.53232-2.3108-0.5-5.5572zm-142.15 0.45719c-0.07246-2.9144-0.41907-5.1667-0.79512-5.1667-0.36667 0-0.66667-0.6-0.66667-1.3333 0-2.1462 1.236-1.5316 1.6759 0.83333 0.22166 1.1917 0.29306 4.1167 0.15866 6.5l-0.24436 4.3333zm19.872 3.1273c0-0.96758 0.28856-1.5277 0.66667-1.294 0.36667 0.22661 0.66667 0.99432 0.66667 1.706 0 0.7117-0.3 1.294-0.66667 1.294s-0.66667-0.7677-0.66667-1.706zm3.3333-2.8495c0-2.6278 0.25379-4.7778 0.56398-4.7778 0.61173 0 0.44049 8.5511-0.18373 9.1753-0.20914 0.20913-0.38025-1.7698-0.38025-4.3975zm103.3-0.61112c-0.0174-2.8417-0.15813-6.5917-0.31283-8.3333-0.15927-1.7931-1e-3 -3.1667 0.36489-3.1667 0.38265 0 0.64617 3.3985 0.64617 8.3333 0 4.5833-0.15 8.3333-0.33334 8.3333-0.18333 0-0.34753-2.325-0.36489-5.1667zm4.8282 3.5c0.0136-1.1 0.163-1.4693 0.33203-0.82064 0.16903 0.64864 0.15791 1.5486-0.0247 2-0.18262 0.45135-0.32092-0.0794-0.30733-1.1794zm15.256-4.8333c0.029-3.575 0.16027-6.2 0.29182-5.8333 0.5229 1.4574 0.69073 12.333 0.19032 12.333-0.29412 0-0.51109-2.925-0.48214-6.5zm8.0651 2.0449c-0.10559-4.2949 0.023-4.8331 1.2476-5.2218 2.2496-0.71401 3.3013 0.80188 3.3013 4.7584 0 2.1189-0.29395 3.585-0.7188 3.585-0.39708 0-0.65209-0.96974-0.56975-2.1667 0.31273-4.5461 0.0164-5.9427-1.2114-5.7094-0.93254 0.17719-1.2434 1.1569-1.5489 4.8822l-0.38227 4.6605zm-87.914 2.692c-0.44016-1.147 1.3283-2.9036 2.9233-2.9036 1.242 0 1.0847 3.1093-0.18194 3.5953-1.6694 0.64062-2.2902 0.48397-2.7414-0.69174zm3.1292-1.216c0-0.59639-0.39085-0.82909-1-0.59534-0.55 0.21106-1 0.65164-1 0.97908s0.45 0.59534 1 0.59534 1-0.44058 1-0.97908zm99.355 1.3389c-0.66477-0.801-0.41342-1.2146 1.4184-2.3342l2.2263-1.3606 0.21784 1.3709c0.42418 2.6693-2.2437 4.2745-3.8625 2.324zm3.1936-1.2484c0.23735-1.2238-0.39175-1.4017-1.801-0.50908-1.0504 0.66532-0.3567 2.2671 0.81317 1.8776 0.42474-0.14141 0.86924-0.75724 0.98779-1.3685zm-137.22 0.22191c-2.2322-2.2322-1.6251-2.6739 3.5-2.5465 3.8361 0.0954 4.1456 0.16822 1.5 0.35304-4.7196 0.32971-5.3631 0.61934-4.2788 1.9258 0.56526 0.68109 1.6291 0.96146 3.0283 0.7981 1.1863-0.1385 2.0103-0.0145 1.831 0.27553-0.63708 1.0308-4.2682 0.50637-5.5806-0.806zm15.635-0.43068c-0.89916-0.97021-1.6231-2.3952-1.6087-3.1667 0.0205-1.1021 0.22313-0.94969 0.94575 0.71152 1.5907 3.6568 4.6753 4.2392 9.0282 1.7044 1.5584-0.9075 1.5451-0.85734-0.20384 0.77213-2.5545 2.3799-5.9442 2.371-8.1613-0.0213zm41.698 0.43068c-2.177-2.177-1.6056-2.6667 3.1111-2.6667 4.8444 0 5.3526 0.70256 0.75179 1.0393-1.5746 0.11525-3.1056 0.22855-3.4022 0.25179-0.29664 0.0232-0.35394 0.34226-0.12733 0.70893 0.22662 0.36666 1.6693 0.67126 3.206 0.67687 2.0496 7e-3 2.5276 0.1824 1.794 0.65646-1.6217 1.048-3.9039 0.76279-5.3333-0.66667zm22.903 0.55057c-2.0982-1.0156-3.8293-5.2888-3.2954-8.1347 0.61713-3.2896 3.9409-6.0063 6.6785-5.4588 2.0602 0.41204 5.3996 3.0429 3.8624 3.0429-0.44815 0-0.81482-0.30742-0.81482-0.68316 0-0.37575-0.80516-0.98929-1.7892-1.3634-3.9088-1.4861-8.0969 2.5574-7.2614 7.0108 0.84002 4.4777 4.9795 6.7534 8.6356 4.7475l2.0818-1.1422-1.5739 1.3819c-1.6893 1.4833-4.2173 1.7154-6.5236 0.59914zm34.631-2.5506c0-2.0167 0.12497-2.8417 0.27772-1.8333s0.15275 2.6583 0 3.6667c-0.15275 1.0083-0.27772 0.18333-0.27772-1.8333zm-145.43 1.3333c0-0.91667 0.15132-1.2917 0.33626-0.83334 0.18494 0.45834 0.18494 1.2083 0 1.6667-0.18494 0.45833-0.33626 0.0833-0.33626-0.83333zm25.41-2.6667c0-1.65 0.13001-2.325 0.28891-1.5s0.1589 2.175 0 3-0.28891 0.15-0.28891-1.5zm-57.015-2.9339c-0.275-2.897-0.49088-6.047-0.47973-7 0.01739-1.4867 0.11578-1.5688 0.6928-0.57857 0.36989 0.6348 0.58577 3.7848 0.47973 7l-0.1928 5.8458zm70.223 1.8806c-1.5808-6.278-6.6239-8.2763-10.672-4.2287-1.1282 1.1282-2.0513 1.7549-2.0513 1.3926 0-0.36228 0.92302-1.4354 2.0512-2.3846 3.0498-2.5663 6.7428-2.3988 9.3198 0.42264 1.8281 2.0015 1.9624 2.0471 1.9624 0.66667 0-0.81505 0.30572-1.4819 0.67937-1.4819 0.4148 0 0.48963 0.71397 0.19215 1.8333-0.60612 2.2807-0.57616 4.1523 0.09072 5.6667 0.29533 0.67067 0.23364 1.1667-0.1451 1.1667-0.36237 0-1.0048-1.374-1.4277-3.0533zm91.997 1.9978c0.032-0.77663 0.18996-0.9346 0.40277-0.40278 0.19259 0.48125 0.1689 1.0562-0.0526 1.2778-0.22152 0.22152-0.37909-0.17223-0.35014-0.875zm-106.56-1.6112c0-1.2833 0.1372-1.8083 0.30488-1.1667 0.16768 0.64166 0.16768 1.6917 0 2.3333s-0.30488 0.11667-0.30488-1.1667zm78.703-1.6667c5e-3 -1.8333 0.13448-2.5042 0.28771-1.4908 0.15324 1.0134 0.14915 2.5134-9e-3 3.3333-0.15824 0.81996-0.28361-9e-3 -0.27861-1.8425zm-113.35 1.0068c0.17189-1.783 2.1344-2.6324 3.3269-1.44 0.47807 0.47808 0.25222 0.57692-0.73084 0.31984-1.0607-0.27739-1.5924 0.029-2.0894 1.204l-0.66666 1.576zm137.21-0.50681c-0.029-0.825 0.0728-1.5 0.22617-1.5 0.15335 0 0.82835-0.17449 1.5-0.38776 1.0944-0.34749 1.1113-0.29556 0.16268 0.5-0.58218 0.48827-1.2335 1.3378-1.4474 1.8878-0.2626 0.67532-0.40594 0.51298-0.44148-0.5zm-126.55-1.8333c0.0074-1.4667 0.14392-1.9882 0.30338-1.1589s0.15341 2.0293-0.01345 2.6667c-0.16686 0.63739-0.29733-0.0411-0.28993-1.5078zm2.3092 0.16667c-0.49549-3.1509 0.65959-3.9585 5.9566-4.1644 2.5113-0.0976 3.6661-0.0365 2.5661 0.13576-1.1 0.17229-2.3458 0.59922-2.7685 0.94875-0.50404 0.41681-0.86328 0.35118-1.0439-0.19072-0.21773-0.6532-0.70914-0.64656-2.3466 0.0317-1.8762 0.77717-2.0365 1.0719-1.7022 3.1317 0.20294 1.2506 0.21379 2.2738 0.02409 2.2738-0.18969 0-0.49822-0.975-0.68561-2.1667zm12.856 1.6333c0-0.69268 1.4445-2.1333 2.139-2.1333 0.29644 0 0.16428 0.6-0.2937 1.3333-0.84118 1.347-1.8453 1.7823-1.8453 0.8zm14.285-0.2109c-0.13967-0.22599 0.35654-0.96338 1.1027-1.6386 1.0379-0.93929 1.6216-1.0609 2.4843-0.51764 2.1187 1.3342 1.6772 2.5672-0.91923 2.5672-1.3276 0-2.5281-0.1849-2.6677-0.4109zm3.5341-0.99187c-0.22153-0.22153-0.79653-0.24522-1.2778-0.0526-0.53182 0.21282-0.37385 0.37079 0.40278 0.40278 0.70278 0.029 1.0965-0.12862 0.875-0.35014zm55.95 1.1921c-2.4886-0.20454-2.5294-0.24837-1.3967-1.5 1.3941-1.5404 2.5086-1.6367 3.6082-0.31172 1.2492 1.5052 0.59354 2.0423-2.2115 1.8117zm1.0635-1.2308c-0.45834-0.18494-1.2083-0.18494-1.6667 0s-0.0833 0.33626 0.83333 0.33626c0.91667 0 1.2917-0.15132 0.83334-0.33626zm-116.83-3.2251c0-2.8413 0.09877-3 1.8667-3 2.2119 0 3.4704 1.08 3.4568 2.9667-0.0088 1.2224-0.09849 1.1908-0.85002-0.3-0.46211-0.91666-1.5077-1.7625-2.3235-1.8797-1.3034-0.18719-1.4833 0.0848-1.4833 2.2423 0 2.3392 0.09296 2.4417 1.9648 2.167 1.0806-0.1586 1.8129-0.0427 1.6273 0.25767-0.18561 0.30032-1.2198 0.54604-2.2981 0.54604-1.8793 0-1.9607-0.12449-1.9607-3zm50.053 2.27c-0.0762-1.5396-2.0792-3.1141-4.386-3.4477l-2-0.28922 2.0505-0.0999c2.2781-0.11098 5.35 2.4936 4.7403 4.0191-0.25116 0.62836-0.36723 0.57606-0.40477-0.18235zm34.667-0.32555c0.032-0.77663 0.18996-0.9346 0.40278-0.40278 0.19258 0.48125 0.1689 1.0562-0.0526 1.2778-0.22153 0.22153-0.37909-0.17222-0.35015-0.875zm-13.36-0.4679c-0.08229-3.753 5.0416-6.3442 8.3102-4.2026 0.91505 0.59957 1.6637 1.3832 1.6637 1.7414 0 0.35821-0.6 0.0513-1.3333-0.68204-2.4348-2.4348-6.1346-1.3677-7.6948 2.2192-0.56144 1.2907-0.92982 1.6506-0.94575 0.92405zm23.805-0.83695c-0.8262-1.1048-1.9991-1.638-4-1.8182l-2.831-0.25509 2.7171-0.11647c2.1265-0.0911 3.0569 0.24524 4.2804 1.5476 0.8598 0.91522 1.4371 1.7858 1.2829 1.9347-0.15422 0.14887-0.80643-0.43275-1.4494-1.2925zm-79.831-0.17948c0-1.0371 2.5-2.2734 3.8683-1.9129 0.94684 0.24944 0.92248 0.31078-0.14911 0.37548-0.70446 0.0425-1.8295 0.57383-2.5 1.1807-0.68732 0.62202-1.2192 0.77766-1.2192 0.35679zm25.005-0.78581c-0.23356-0.37791 0.03404-0.48967 0.62732-0.26201 1.1549 0.4432 1.3663 0.92104 0.4073 0.92104-0.34503 0-0.81061-0.29656-1.0346-0.65903zm45.662 0.39702c0-0.1441 0.46559-0.44066 1.0346-0.65903 0.59328-0.22766 0.86088-0.1159 0.62732 0.26201-0.3915 0.63347-1.662 0.93697-1.662 0.39702zm44.002 0.0315c-6e-3 -1.4566 2.4539-4.4472 4.6949-5.7067 1.7641-0.99148 3.5206-1.3667 6.06-1.2945l3.5759 0.10165-4.0319 0.39835c-4.5717 0.45167-7.1143 1.8462-8.9975 4.9346-0.71446 1.1717-1.3001 1.8767-1.3015 1.5666zm35.446-0.64789c1.0425-0.80397 1.0425-0.90602 0-1.5652-0.88482-0.55951-0.68121-0.64176 0.98559-0.39813 1.7387 0.25413 2.1837 0.0459 2.5817-1.2081 0.95807-3.0186-3.192-4.059-4.2952-1.0768-0.29748 0.80416-0.6797 1.0656-0.94064 0.64338-0.24175-0.39117 0.10823-1.3877 0.77773-2.2145 0.92993-1.1484 1.6268-1.4005 2.952-1.0679 3.4778 0.87287 2.7105 5.7875-1.1016 7.0566-1.7399 0.5792-1.8948 0.55187-0.95957-0.16935zm11.218 0.16771c0-0.52395-0.72849-0.66175-2.1667-0.40984-1.923 0.33681-1.9979 0.29723-0.66667-0.35188 1.6889-0.82348 5.0731 0.16681 3.6262 1.0611-0.44213 0.27325-0.79281 0.14083-0.79281-0.29936zm-153.57-0.95598c0.41654-1.0855 2.6031-1.3656 3.1942-0.40912 0.20085 0.32498-0.30645 0.77088-1.1273 0.99089-2.216 0.59394-2.4886 0.5172-2.0669-0.58177zm60.209-1.4826c-0.18298-1.5488-0.0786-2.5619 0.23184-2.2514 0.31048 0.31049 0.46019 1.5777 0.33268 2.816-0.22613 2.196-0.24002 2.1821-0.56452-0.56452zm63.473 0.34908c-0.0676-1.5619-0.53466-2.7161-1.2734-3.1464-0.64166-0.37374-0.8284-0.68864-0.41496-0.69979 1.3814-0.0373 2.3421 1.8696 2.0671 4.1028l-0.27213 2.2102zm-79.128-0.0737c1.6378-2.4996 5.801-4.4607 9.4454-4.4492 1.7834 6e-3 3.6306 0.25637 4.1049 0.55725 0.47946 0.30416-0.77699 0.4111-2.83 0.24085-4.3534-0.36102-7.0794 0.59614-9.3361 3.2782-1.9318 2.2958-2.7968 2.5289-1.3842 0.37297zm-40.602-1.3215c0.25035-0.65748 0.62313-1.0275 0.82839-0.82222s4.23e-4 0.7432-0.45519 1.1954c-0.65841 0.65351-0.73499 0.57693-0.3732-0.3732zm-5.6673-0.62254c-0.0662-1.8036 2.8909-3.4432 4.5797-2.5393 0.75792 0.40563 1.378 0.88751 1.378 1.0708s-0.57827 0.0238-1.285-0.3544c-1.6445-0.88013-3.3369-0.22731-4.0618 1.5669-0.45139 1.1171-0.57733 1.1699-0.61088 0.25597zm128.01-2.0883c0.15278-0.13175 1.1778-0.44086 2.2778-0.68691 1.4606-0.32672 1.7303-0.26487 1 0.22934-0.90025 0.6092-3.9468 1.0345-3.2778 0.45757zm-55.295-9.1919c-1.2319-0.3545-2.115-0.76931-1.9625-0.9218 0.15249-0.1525 1.4301 0.0411 2.8392 0.43013 6.9677 1.9239 15.632-5.0747 15.682-12.666 0.0324-4.9935-1.3804-7.5082-8.2832-14.744-3.6729-3.85-5.5584-5.9662-4.19-4.7026 2.3146 2.1374 3.5268 2.1523 1.6546 0.02024-0.45834-0.52194-0.13532-0.36461 0.71782 0.34962 0.86326 0.7227 1.222 1.4083 0.80904 1.546-0.40816 0.13605 1.3139 2.4118 3.8268 5.0572 3.4005 3.5799 4.7934 5.6118 5.4469 7.9459 2.1788 7.7819-1.8795 15.197-9.6339 17.603-3.0763 0.95438-3.8455 0.9636-6.9064 0.0827zm-6.1328-3.8626c-1.4896-1.5659-2.5828-2.9727-2.4294-3.1262 0.15347-0.15347 1.529 0.97096 3.0568 2.4987 1.5278 1.5278 2.621 2.9346 2.4294 3.1262-0.19162 0.19162-1.5672-0.93281-3.0568-2.4987zm6.9646-3.3282c-2.2398-0.95436-4.2667-4.0082-4.1821-6.3009 0.073-1.9787 0.1-1.9563 0.5701 0.47483 0.72401 3.7438 2.7359 5.4484 6.4306 5.4484 2.3909 0 3.3126-0.33619 4.3148-1.5738 1.5512-1.9156 1.6799-6.2628 0.26931-9.0928l-0.9969-2 1.3343 1.5739c1.2397 1.4622 1.7226 3.8732 1.4205 7.0928-0.30493 3.2504-5.7262 5.8411-9.1608 4.3777zm-10.659-2.4087c-0.23436-0.93375-0.24007-1.8838-0.0127-2.1111 0.22737-0.22737 0.4134 0.1766 0.4134 0.89771s0.36 1.6711 0.8 2.1111c0.60788 0.60788 0.61093 0.8 0.0127 0.8-0.43301 0-0.97904-0.76397-1.2134-1.6977zm-0.25133-6.8288c-0.0374-2.1946 5.3521-10.14 6.878-10.14 0.32768 0-0.51897 1.2339-1.8814 2.742-1.3625 1.5081-3.0408 3.9831-3.7296 5.5-0.68881 1.5169-1.259 2.371-1.267 1.8981zm7.3391-0.14011c0.0185-1.1974 3.9358-6.0156 3.9616-4.8727 0.01 0.43669-0.30638 0.99443-0.70276 1.2394-0.39639 0.24498-1.2953 1.3877-1.9975 2.5393-0.70225 1.1517-1.2699 1.6439-1.2614 1.0939zm6.9956-5.9832c-1.0377-1.0831-2.1529-1.8049-2.4782-1.6038-0.64285 0.3973-3.6423-3.0658-3.373-3.8945 0.20794-0.64013-1.938-3.1851-2.6857-3.1851-0.30682 0-0.35875 0.32215-0.11541 0.71588 0.24334 0.39374-0.18895 0.32157-0.96066-0.16036-0.7717-0.48194-1.4031-1.1408-1.4031-1.4642 0-0.32336 0.45-0.21446 1 0.242 0.55 0.45646 1 0.66784 1 0.46974s-3.1611-3.5637-7.0246-7.479c-5.3893-5.4617-6.9308-7.4143-6.6217-8.3881 0.62422-1.9667-2e-3 -1.5618-3.8114 2.4666-3.3599 3.5526-7.4816 6.3006-9.3491 6.2331-0.47294-0.01707 0.5481-0.76418 2.269-1.6602s5.3959-3.9558 8.1667-6.7994c4.5672-4.6872 5.0378-5.0068 5.0378-3.4214 0 0.96182-0.46 2.1305-1.0222 2.5971-0.56221 0.46659-0.93721 1.0955-0.83333 1.3976 0.10388 0.3021 5.7177 6.1033 12.475 12.891s12.136 12.493 11.951 12.677-1.1839-0.55138-2.2216-1.6345zm-2.3494-2.2339c0-0.11942-0.825-0.94442-1.8333-1.8333l-1.8333-1.6162 1.6162 1.8333c1.5106 1.7135 2.0504 2.1391 2.0504 1.6162zm-21.084 1.6366c-1.5131-0.70436-2.9558-1.6119-3.206-2.0167-0.67228-1.0878 0.34494-0.89341 1.6887 0.32267 1.9148 1.7329 8.452 1.9588 11.435 0.39531 1.375-0.72068 2.5-1.1109 2.5-0.86713 0 0.81956-4.3094 2.7182-7 3.084-1.8538 0.25204-3.5053-0.02783-5.4178-0.91809zm36.365 0.05668c-1.2843-0.65478-3.453-2.2078-4.8194-3.4512l-2.4843-2.2607 1.7965-1.8752c0.98809-1.0314 1.928-1.7437 2.0887-1.583 0.1607 0.1607-0.51663 0.98791-1.5052 1.8382l-1.7974 1.546 2.6852 2.1579c3.3103 2.6602 5.4006 3.485 8.8322 3.485 5.4391 0 9.888-4.2603 10.439-9.9966 0.25548-2.6588-9e-4 -3.8121-1.3648-6.1394-0.92365-1.5761-2.3224-3.4476-3.1083-4.1588-1.4236-1.2884-1.4368-1.2853-3.5369 0.81474l-2.1079 2.1079 1.3845 1.5194c1.7403 1.9099 3.1082 4.5179 2.6238 5.0023-0.20278 0.20278-0.69119-0.47955-1.0854-1.5163s-1.3026-2.2954-2.0186-2.7969c-1.5626-1.0945-1.6664-2.3707-0.28588-3.5164 0.55887-0.46381 0.84916-1.0103 0.64511-1.2143-0.20406-0.20406-3.2945 2.4637-6.8677 5.9283-3.5732 3.4646-0.31099 0.07434 7.2493-7.534 8.3459-8.3989 14.246-13.832 15.018-13.829 1.0534 0.0034 0.9856 0.15464-0.39445 0.87944-2.1048 1.1054-8 6.4541-8 7.2583 0 0.33191 0.375 0.38421 0.83333 0.11621 0.45834-0.268 0.25999 0.16634-0.44077 0.96521-0.70076 0.79886-1.7508 1.3754-2.3333 1.2813-0.58257-0.09417-0.98422 0.20378-0.89255 0.66212 0.0917 0.45833-0.2466 0.83333-0.75171 0.83333-0.5051 0-1.2661 0.41895-1.691 0.93099-0.63175 0.76121-0.43387 0.91469 1.085 0.84162 1.0217-0.04916 2.0183-0.3067 2.2147-0.57232 0.19636-0.26562 1.6964 0.72586 3.3333 2.2033 1.637 1.4774 2.5263 2.4714 1.9763 2.2088-0.55-0.26257-1.6738-1.084-2.4974-1.8253-1.7549-1.5797-2.8581-1.0033-1.3567 0.70883 5.8008 6.6152 3.4403 15.741-5.0106 19.37-2.6144 1.1228-5.1336 0.99782-7.8551-0.38967zm-42.208-5.7617c-2.393-4.4436-0.9511-10.412 3.5481-14.687l2.0759-1.9723 4.3036 4.5809-4.3244-3.8771-1.6653 1.5644c-2.9008 2.7252-4.5697 7.0164-4.09 10.517 0.23168 1.6903 0.87628 3.7677 1.4324 4.6165s0.77252 1.5433 0.48078 1.5433-1.0843-1.0285-1.7613-2.2856zm19.978 1.0382c0.70582-0.68603 1.4011-1.1433 1.545-1.0161 0.42044 0.37152-1.3571 2.2634-2.1266 2.2634-0.38593 0-0.12419-0.5613 0.58163-1.2473zm-13.235-2.7603c-1.7719-2.0695-1.4756-5.4646 0.64373-7.3762l1.7919-1.6162-1.4586 1.9232c-2.0032 2.6414-1.8902 5.3072 0.29802 7.0284 1.0242 0.80566 1.364 1.3817 0.81483 1.3817-0.51796 0-1.4584-0.60343-2.0899-1.341zm4.9074 1.1523c0.15277-0.10376 0.87777-0.62876 1.6111-1.1667 1.2333-0.90467 1.2647-0.89052 0.41837 0.18865-0.50323 0.64167-1.2282 1.1667-1.6111 1.1667s-0.57115-0.08489-0.41837-0.18864zm30.576-1.515c-1.1631-1.2381-1.286-1.583-0.44954-1.262 0.63304 0.24292 1.151 0.701 1.151 1.018s0.975 0.8578 2.1667 1.2019c1.9813 0.57207 2.0197 0.63075 0.44954 0.68573-1.0365 0.03629-2.3516-0.6152-3.3176-1.6436zm6.5531 0.66588c0.81492-0.57079 1.5054-1.5458 1.5343-2.1667 0.0352-0.75405 0.16855-0.83936 0.40175-0.25696 0.38362 0.95809-1.5734 3.4614-2.706 3.4614-0.39142 0-0.0449-0.46701 0.77-1.0378zm-27.24-9.4622c-4.6631-4.8873-6.7119-7.3489-5.5245-6.6377 0.89933 0.53866 10.513 11.138 10.103 11.138-0.15654 0-2.2167-2.025-4.5782-4.5zm9.7216 3.1667c0.66366-0.73333 1.3566-1.3333 1.54-1.3333s-0.20966 0.6-0.87332 1.3333c-0.66365 0.73333-1.3566 1.3333-1.54 1.3333s0.20966-0.6 0.87332-1.3333zm-42.154-1.7953c0.64864-0.16903 1.5486-0.15791 2 0.0247 0.45136 0.18262-0.07935 0.32091-1.1794 0.30733-1.1-0.01359-1.4693-0.163-0.82065-0.33203zm-4.1519-0.69261c-1.9589-0.77077-6.0358-5.1083-7.3469-7.8168-1.3902-2.8717-1.6273-6.1241-0.65813-9.0285 0.37994-1.1387 0.44842-0.61066 0.21617 1.6667-0.5558 5.45 2.9644 11.487 8.3617 14.339 2.182 1.1533 1.7678 1.7603-0.57281 0.83937zm76.806-0.1995c-0.825-0.33161-1.5-0.76259-1.5-0.95774 0-0.64708 1.061-0.36803 2.3726 0.62398 1.4749 1.1155 1.2686 1.1944-0.87258 0.33376zm9.5-0.64589c0.22661-0.36667 0.54431-0.66667 0.70601-0.66667 0.16169 0 0.29399 0.3 0.29399 0.66667 0 0.36667-0.31771 0.66667-0.70602 0.66667-0.3883 0-0.5206-0.3-0.29398-0.66667zm-35.667-0.92868c0-0.1441 0.46558-0.44067 1.0346-0.65903 0.59328-0.22766 0.86088-0.1159 0.62732 0.26201-0.39151 0.63347-1.662 0.93697-1.662 0.39702zm39.829-1.9047c1.1496-1.1917 2.5566-3.0667 3.1267-4.1667 0.57003-1.1 1.0363-1.55 1.0361-1-3.7e-4 1.2924-1.9394 4.2202-3.9497 5.9638-2.4237 2.1021-2.5509 1.6262-0.21307-0.79712zm-34.749-3.5c1.0266-1.4667 1.9536-2.7917 2.0601-2.9444s0.19363 0.06749 0.19363 0.48948c0 0.42199-0.92704 1.747-2.0601 2.9444l-2.0601 2.1772zm-55.131-0.94872c-1.5311-1.5311-1.9487-2.5448-1.9487-4.7304 0-3.0289 2.0502-6.6542 3.7632-6.6542 0.62736 0 0.23405 0.64934-1.0454 1.7259-1.6868 1.4193-2.0512 2.22-2.0512 4.5068 0 3.9336 2.3816 6.4339 6.1284 6.4339 2.4405 0 3.1139-0.38871 6.1397-3.5444 1.8692-1.9494 3.9422-4.3556 4.6067-5.347 0.66448-0.99148 1.4687-1.6416 1.7873-1.4448 0.31852 0.19686 0.75199 0.07823 0.96326-0.26361 0.42348-0.68521-2.4617-3.7781-6.1464-6.5887-2.0775-1.5847-2.9779-1.8115-7.1934-1.8115-2.6503 0-4.4737-0.22041-4.0521-0.48979 1.1258-0.71932 5.72-0.60826 8.665 0.20948 1.5681 0.43543 3.9643 2.0675 6.1652 4.1993l3.6001 3.487 7.1681-6.8528c3.9425-3.7691 6.7564-6.8604 6.2532-6.8696-0.73457-0.01349-0.75254-0.2125-0.0911-1.0095 0.45311-0.54596 1.1648-0.79787 1.5816-0.55978 0.41678 0.23808 0.53539 0.18738 0.26358-0.11267-0.27182-0.30005-0.19165-0.91012 0.17816-1.3557 1.0428-1.2565 0.23899-2.4637-3.2058-4.8144-2.606-1.7783-3.8105-2.1648-6.7466-2.1648-5.4889 0-8.3864 2.3143-10.433 8.3333-0.24939 0.73333-0.58421 0.98626-0.74403 0.56205-0.59717-1.585 1.7711-5.5479 4.4946-7.5207 2.3469-1.7001 3.4421-2.0409 6.5513-2.0388 3.9425 0.0026 6.1273 0.97041 9.6283 4.2649 1.0932 1.0287 1.7367 2.1956 1.5209 2.7579-0.20572 0.5361-0.0113 0.97472 0.43212 0.97472 1.0797 0-25.354 26.494-27.648 27.711-3.0329 1.6094-6.3675 1.2235-8.5844-0.99344zm79.551 1.4892c0.64167-0.16768 1.6917-0.16768 2.3333 0 0.64167 0.16768 0.11667 0.30488-1.1667 0.30488-1.2833 0-1.8083-0.1372-1.1667-0.30488zm-4.374-2.3738c-2.0758-2.0558-2.0838-2.0817-0.15687-0.50517 1.117 0.91382 2.3159 1.8888 2.6642 2.1667 0.34834 0.27784 0.41893 0.50517 0.15688 0.50517s-1.4609-0.975-2.6642-2.1667zm9.7014 0.60161c3.3652-3.1187 2.6633-9.2014-1.1728-10.164-1.7606-0.44187-2.2848-1.6041-0.7236-1.6041 1.6764 0 5.0691 4.5469 5.0691 6.7936 0 2.1329-2.7839 6.5397-4.1313 6.5397-0.40154 0 0.0298-0.70428 0.95864-1.5651zm-56.423-2.1561c-1.0643-2.7736 0.52194-8.9455 2.2991-8.9455 0.36822 0 0.0192 0.87958-0.77561 1.9546-1.1541 1.561-1.376 2.5679-1.1018 5 0.36117 3.2043 0.24838 3.7369-0.42163 1.9909zm65.786-2.6121c5e-3 -1.8333 0.13447-2.5042 0.28771-1.4908 0.15323 1.0134 0.14914 2.5134-9e-3 3.3333-0.15824 0.81996-0.28362-0.0092-0.27861-1.8425zm-36.805-2.0556c0.032-0.77663 0.18996-0.9346 0.40277-0.40278 0.19258 0.48125 0.1689 1.0562-0.0526 1.2778-0.22153 0.22153-0.37909-0.17222-0.35014-0.875zm5.5788 0.44583c0.20726-0.33535 0.0421-0.72132-0.36709-0.8577-0.46684-0.15561-0.33855-0.5844 0.34444-1.1512 0.95316-0.79105 1.0296-0.74662 0.61495 0.3577-0.41821 1.1139-0.34224 1.1543 0.6514 0.346 1.5167-1.2337 1.4219-1.8355-0.56073-3.5594-0.93414-0.81222-1.5234-1.8881-1.3218-2.4134 0.20004-0.52132 0.0145-1.3686-0.4123-1.8829-0.60702-0.73142-0.48249-1.2574 0.57186-2.4155 2.5014-2.7475 3.0438-4.3978 2.1526-6.5494-0.8419-2.0325-2.9998-3.0073-5.3164-2.4015-0.72796 0.19036-1.1554 0.0741-0.94996-0.25838 0.64634-1.0458 4.0818-0.65746 5.6877 0.64295 2.2816 1.8476 2.1027 5.4811-0.39845 8.0918l-1.939 2.0239 4.2391 4.2391 1.7498-1.6344c0.96236-0.89894 2.3387-2.6844 3.0586-3.9678 0.71985-1.2833 1.1247-1.7333 0.89976-1-0.72666 2.3686-3.2886 5.6293-5.1258 6.5238-1.1501 0.55997-1.6082 1.1653-1.2818 1.6936 0.38103 0.61651 0.93841 0.48369 2.2284-0.53098 2.8693-2.257 2.4979-1.5315-1.0139 1.9802-3.1582 3.1582-4.3525 4.0846-3.5114 2.7236zm-23.19-2.7236c-1.0382-1.1-1.6088-2-1.2678-2 0.62671 0 2.2268 1.6357 3.0978 3.1667 0.76132 1.3382 0.19125 0.9748-1.83-1.1667zm-31.441-1.0207c-2.6079-2.1376-1.9057-2.1231 1 0.02066 1.2425 0.91667 1.9758 1.6559 1.6295 1.6427-0.34624-0.01319-1.5295-0.7617-2.6295-1.6634zm37.333 0.354c0.66366-0.73333 1.3566-1.3333 1.54-1.3333s-0.20966 0.6-0.87332 1.3333c-0.66365 0.73333-1.3566 1.3333-1.54 1.3333s0.20966-0.6 0.87332-1.3333zm10 0c-0.66366-0.73333-0.87071-1.3333-0.46012-1.3333 0.4106 0 1.0676 0.6 1.4601 1.3333 0.39247 0.73333 0.59952 1.3333 0.46011 1.3333-0.1394 0-0.79646-0.6-1.4601-1.3333zm36.96-0.76363c-0.92942-2.2438-4.3408-5.903-5.5032-5.903-0.3734 0-0.49618-0.18273-0.27285-0.40606 0.7756-0.7756 4.5208 2.5336 5.8778 5.1935 0.75061 1.4713 1.2342 2.8057 1.0746 2.9652-0.15956 0.15956-0.68894-0.67276-1.1764-1.8496zm-99.865-1.2198c1.099-1.7337 5.7567-5.7796 6.0984-5.2974 0.10945 0.15444-1.4533 1.7808-3.4727 3.6141-2.1615 1.9623-3.2414 2.6546-2.6257 1.6833zm25.531-1.2682c-3.5438-3.4319-5.0025-6.1983-4.8994-9.2918 0.04512-1.3549 0.26714-1.0369 0.91341 1.3081 0.46959 1.7039 1.8466 4.3334 3.0601 5.8434l2.2063 2.7454 1.7501-1.6767c2.4706-2.3669 3.3258-2.0934 1.0105 0.32326-2.2564 2.3552-2.3617 2.3747-4.041 0.74844zm22.956-1.9151c-0.81582-1.0402-0.79653-1.0742 0.17798-0.31289 0.91185 0.71232 1.5921 0.58838 4.1055-0.74803l3.0126-1.6018-4.032-3.9186c-2.2176-2.1552-3.8224-3.5436-3.5662-3.0853s0.18018 0.83333-0.1689 0.83333c-0.61463 0-1.5706-1.6388-1.7501-3-0.0483-0.36667-0.52425-0.56667-1.0576-0.44444-0.53334 0.12222-0.75748 0.01001-0.49811-0.24937 0.25937-0.25937-1.2098-2.4536-3.2649-4.876-2.0551-2.4224-4.1423-5.3756-4.6383-6.5626-1.0186-2.4378-1.1755-6.7364-0.29661-8.1242 0.35937-0.56746 0.45109 0.26207 0.238 2.1526-0.5681 5.0402 1.7638 8.7584 11.754 18.742 4.7542 4.7509 8.497 8.8759 8.3173 9.1667-0.17972 0.29078-0.83405 0.53537-1.4541 0.54352-0.62002 0.0082-1.8773 0.60148-2.794 1.3185-2.0703 1.6194-2.9186 1.654-4.085 0.16667zm7.6435-11.428c-10.028-10.274-12.187-12.829-12.567-14.87-0.84714-4.5457 1.8066-8.4408 6.0696-8.9087 3.2564-0.35746 6.9958 2.4351 6.9128 5.1625-0.0147 0.48244-0.47031 0.0597-1.0125-0.93941-2.0927-3.8562-7.1252-4.4317-9.9015-1.1323-2.7694 3.2913-2.1782 6.6352 1.9886 11.247 2.4786 2.7435 3.6188 3.3436 3.6188 1.9047 0-0.43827 0.73103-1.5633 1.6245-2.5s2.0916-2.6031 2.6626-3.7031c0.84416-1.6264 1.0388-1.7443 1.0422-0.63078 2e-3 0.75307-1.0459 2.3869-2.3292 3.6308s-2.3333 2.4923-2.3333 2.7742 0.93108 1.5731 2.0691 2.8692 1.8415 2.3565 1.5633 2.3565 0.0309 0.59293 0.6867 1.3176c0.65584 0.72469 1.4122 1.1818 1.6809 1.0157 0.26866-0.16604 1.0536 0.36086 1.7442 1.1709 1.0448 1.2254 1.0598 1.321 0.0891 0.56932-2.9189-2.2604-0.67165 0.72953 4.3186 5.7459 3.0169 3.0327 5.1919 5.4714 4.8333 5.4195-0.35857-0.05192-6.1007-5.6769-12.76-12.5zm-2.8918-4.9906c0-0.13844-0.45687-0.63087-1.0153-1.0943-0.8489-0.70452-0.94645-0.66328-0.59534 0.2517 0.3586 0.93449 1.6106 1.5895 1.6106 0.84259zm28.209 14.752c0.69957-0.64167 1.7637-1.1477 2.3648-1.1244 0.69089 0.02672 0.49304 0.28179-0.53795 0.69355-0.89691 0.35821-1.961 0.8642-2.3648 1.1244-0.4037 0.26021-0.16163-0.05189 0.53794-0.69355zm-36.408-0.03007-1.8657-0.80326 3.196-3c2.0435-1.9182 2.4158-2.1472 1.0324-0.63493-2.4912 2.7232-2.5915 3.1631-0.99696 4.3736 1.4379 1.0915 1.0608 1.1094-1.3657 0.06463zm-16.634-2.783c-1.5601-2.1455-1.4835-5.3701 0.16667-7.0203 2.0122-2.0122 5.307-1.7376 8 0.66667 2.6989 2.4096 2.0203 2.6965-0.78824 0.33333-4.9689-4.1811-10.486 0.83815-6.4967 5.9101 0.75994 0.96612 1.1349 1.7471 0.83333 1.7356-0.30161-0.01152-1.0734-0.74296-1.715-1.6254zm58.342 1.168c1.0134-0.15324 2.5134-0.14914 3.3333 0.0091s-9e-3 0.28362-1.8425 0.27861c-1.8333-5e-3 -2.5042-0.13448-1.4908-0.28771zm-7.3927-4.9216c-0.1359-3.5783-2.898-7.9357-6.0702-9.5761-2.315-1.1971-7.5014-1.3477-9.5901-0.27843-0.80089 0.41002-2.6179 1.835-4.0378 3.1667-1.7337 1.626-2.341 1.9526-1.8491 0.99444 0.40288-0.78471 2.141-2.3597 3.8626-3.5 6.082-4.0285 13.297-2.3434 16.823 3.9288 1.0791 1.92 1.4192 3.4332 1.2341 5.4908l-0.25554 2.8404zm-16.783-1.5184c0-0.13844 0.525-0.66344 1.1667-1.1667 1.0574-0.82925 1.081-0.80567 0.2517 0.2517-0.87091 1.1105-1.4184 1.4637-1.4184 0.91496zm-5.9901-5.4783c-5e-3 -0.4015 0.629-1.3015 1.4099-2 7.99-7.1469 6.2454-19.934-3.178-23.293-1.4163-0.50491-2.0015-0.93119-1.3004-0.94728 0.70112-0.01609 2.5471 0.71639 4.1022 1.6277 5.4748 3.2085 7.83 11.416 4.9766 17.343-1.3925 2.8925-5.9942 8.4587-6.0104 7.27zm-18.324-20.308c1.188-2.2973 6.5291-5.9772 8.6109-5.9327 0.84056 0.01796 0.37169 0.38492-1.214 0.95014-2.7779 0.99018-7.0832 4.7291-7.0832 6.1514 0 0.47807-0.3077 0.86922-0.68378 0.86922-0.38656 0-0.22568-0.88588 0.3701-2.038zm10.814-6.4035c0.45834-0.18494 1.2083-0.18494 1.6667 0 0.45833 0.18494 0.0833 0.33626-0.83333 0.33626-0.91667 0-1.2917-0.15132-0.83334-0.33626z" fill="#C9A36B"/>
  </g>
</svg>
